<svg width="70" height="27" viewBox="0 0 70 27" fill="none" xmlns="http://www.w3.org/2000/svg">
<path d="M8.88558 0.872C11.0216 0.872 12.7136 1.064 13.9616 1.448C15.2096 1.808 16.1096 2.456 16.6616 3.392C17.2136 4.328 17.4896 5.648 17.4896 7.352C17.4896 9.128 17.1656 10.484 16.5176 11.42C15.8696 12.332 14.7776 12.86 13.2416 13.004V13.22C15.1136 13.388 16.4096 14.036 17.1296 15.164C17.8736 16.268 18.2456 17.816 18.2456 19.808C18.2456 21.512 17.9576 22.832 17.3816 23.768C16.8296 24.704 15.9416 25.364 14.7176 25.748C13.5176 26.108 11.9456 26.288 10.0016 26.288C8.65758 26.288 7.43358 26.252 6.32958 26.18C5.24958 26.108 4.22958 26 3.26958 25.856C2.30958 25.688 1.36158 25.472 0.42558 25.208L0.85758 21.5C2.22558 21.692 3.58158 21.848 4.92558 21.968C6.29358 22.088 7.64958 22.148 8.99358 22.148C9.90558 22.148 10.6256 22.064 11.1536 21.896C11.6816 21.704 12.0536 21.368 12.2696 20.888C12.5096 20.384 12.6296 19.664 12.6296 18.728C12.6296 17.744 12.5096 16.988 12.2696 16.46C12.0536 15.932 11.6696 15.56 11.1176 15.344C10.5656 15.128 9.80958 15.02 8.84958 15.02L3.98958 14.984V11.276L8.81358 11.24C9.62958 11.216 10.2656 11.12 10.7216 10.952C11.2016 10.784 11.5376 10.472 11.7296 10.016C11.9456 9.56 12.0536 8.924 12.0536 8.108C12.0536 7.268 11.9456 6.62 11.7296 6.164C11.5136 5.708 11.1416 5.396 10.6136 5.228C10.1096 5.06 9.41358 4.976 8.52558 4.976C7.18158 4.976 5.93358 5.024 4.78158 5.12C3.65358 5.216 2.50158 5.324 1.32558 5.444L0.92958 1.592C2.12958 1.328 3.34158 1.148 4.56558 1.052C5.78958 0.931999 7.22958 0.872 8.88558 0.872ZM35.6825 0.727999C36.8585 0.727999 37.8545 0.763999 38.6705 0.835998C39.5105 0.883999 40.2785 0.967999 40.9745 1.088C41.6705 1.208 42.3905 1.376 43.1345 1.592L42.7025 5.624C41.9105 5.576 41.1785 5.54 40.5065 5.516C39.8585 5.492 39.1505 5.48 38.3825 5.48C37.6385 5.456 36.7385 5.444 35.6825 5.444C34.4585 5.444 33.4985 5.684 32.8025 6.164C32.1305 6.644 31.6505 7.484 31.3625 8.684C31.0745 9.86 30.9305 11.492 30.9305 13.58C30.9305 15.668 31.0745 17.312 31.3625 18.512C31.6505 19.688 32.1305 20.516 32.8025 20.996C33.4985 21.476 34.4585 21.716 35.6825 21.716C37.3385 21.716 38.7305 21.692 39.8585 21.644C40.9865 21.596 42.1025 21.512 43.2065 21.392L43.6745 25.424C42.5225 25.784 41.3465 26.036 40.1465 26.18C38.9465 26.348 37.4585 26.432 35.6825 26.432C33.1145 26.432 31.0505 26.024 29.4905 25.208C27.9545 24.368 26.8385 23.012 26.1425 21.14C25.4705 19.268 25.1345 16.748 25.1345 13.58C25.1345 10.412 25.4705 7.892 26.1425 6.02C26.8385 4.148 27.9545 2.804 29.4905 1.988C31.0505 1.148 33.1145 0.727999 35.6825 0.727999ZM69.5186 1.16L63.4706 19.556C63.0386 20.9 62.5586 22.064 62.0306 23.048C61.5266 24.032 60.8906 24.812 60.1226 25.388C59.3786 25.94 58.4186 26.276 57.2426 26.396C56.6906 26.444 56.0306 26.444 55.2626 26.396C54.5186 26.348 53.7746 26.276 53.0306 26.18C52.3106 26.084 51.6866 25.988 51.1586 25.892L51.7706 22.04C52.8506 22.088 53.7266 22.124 54.3986 22.148C55.0946 22.148 55.6586 22.076 56.0906 21.932C56.5226 21.788 56.8706 21.548 57.1346 21.212C57.4226 20.876 57.6866 20.396 57.9266 19.772L58.7186 17.108L59.5466 15.128L63.8666 1.16H69.5186ZM54.1466 1.16L58.0346 14.372C58.1306 14.684 58.3706 14.84 58.7546 14.84H60.2666L61.5986 18.944H56.7746C55.8626 18.944 55.1666 18.716 54.6866 18.26C54.2066 17.804 53.8466 17.18 53.6066 16.388L48.4946 1.16H54.1466Z" fill="url(#paint0_linear_87_107)"/>
<path d="M13.9616 1.448L13.6675 2.40378L13.6759 2.40637L13.6844 2.40882L13.9616 1.448ZM16.6616 3.392L15.8002 3.89998L16.6616 3.392ZM16.5176 11.42L17.3328 11.9992L17.3398 11.9892L16.5176 11.42ZM13.2416 13.004L13.1482 12.0084L12.2416 12.0934V13.004H13.2416ZM13.2416 13.22H12.2416V14.1343L13.1522 14.216L13.2416 13.22ZM17.1296 15.164L16.2867 15.702L16.2934 15.7125L16.3003 15.7229L17.1296 15.164ZM17.3816 23.768L16.5299 23.2439L16.525 23.2519L16.5202 23.26L17.3816 23.768ZM14.7176 25.748L15.005 26.7059L15.0169 26.7021L14.7176 25.748ZM6.32958 26.18L6.26306 27.1778L6.2645 27.1779L6.32958 26.18ZM3.26958 25.856L3.0972 26.841L3.1092 26.8431L3.12124 26.8449L3.26958 25.856ZM0.42558 25.208L-0.567702 25.0923L-0.666353 25.939L0.154119 26.1704L0.42558 25.208ZM0.85758 21.5L0.996568 20.5097L-0.0172328 20.3674L-0.135702 21.3843L0.85758 21.5ZM4.92558 21.968L4.83665 22.964L4.8382 22.9642L4.92558 21.968ZM11.1536 21.896L11.4568 22.8489L11.4762 22.8428L11.4953 22.8358L11.1536 21.896ZM12.2696 20.888L11.3667 20.4581L11.3621 20.4678L11.3577 20.4776L12.2696 20.888ZM12.2696 16.46L11.344 16.8386L11.3513 16.8564L11.3592 16.8738L12.2696 16.46ZM8.84958 15.02L8.84217 16.02H8.84958V15.02ZM3.98958 14.984H2.98958V15.9766L3.98217 15.984L3.98958 14.984ZM3.98958 11.276L3.98212 10.276L2.98958 10.2834V11.276H3.98958ZM8.81358 11.24L8.82104 12.24L8.83201 12.2399L8.84298 12.2396L8.81358 11.24ZM10.7216 10.952L10.3912 10.0081L10.3835 10.0108L10.3759 10.0137L10.7216 10.952ZM11.7296 10.016L10.8258 9.58791L10.8165 9.60773L10.8079 9.62794L11.7296 10.016ZM11.7296 6.164L10.8258 6.59208V6.59209L11.7296 6.164ZM10.6136 5.228L10.2973 6.17677L10.3104 6.18093L10.6136 5.228ZM4.78158 5.12L4.69853 4.12345L4.69678 4.1236L4.78158 5.12ZM1.32558 5.444L0.330823 5.54626L0.43301 6.54027L1.42709 6.43883L1.32558 5.444ZM0.92958 1.592L0.714718 0.615355L-0.156392 0.806998L-0.0651774 1.69426L0.92958 1.592ZM4.56558 1.052L4.64377 2.04894L4.65347 2.04818L4.66315 2.04723L4.56558 1.052ZM8.88558 1.872C10.9767 1.872 12.5559 2.06174 13.6675 2.40378L14.2557 0.492219C12.8713 0.0662632 11.0665 -0.128 8.88558 -0.128V1.872ZM13.6844 2.40882C14.7379 2.71272 15.4026 3.22577 15.8002 3.89998L17.5229 2.88401C16.8166 1.68623 15.6812 0.903279 14.2387 0.487175L13.6844 2.40882ZM15.8002 3.89998C16.2238 4.61827 16.4896 5.73418 16.4896 7.352H18.4896C18.4896 5.56182 18.2033 4.03773 17.5229 2.88401L15.8002 3.89998ZM16.4896 7.352C16.4896 9.03024 16.1793 10.1518 15.6954 10.8508L17.3398 11.9892C18.1518 10.8162 18.4896 9.22576 18.4896 7.352H16.4896ZM15.7024 10.8408C15.2799 11.4354 14.5093 11.8808 13.1482 12.0084L13.3349 13.9996C15.0459 13.8392 16.4593 13.2286 17.3328 11.9992L15.7024 10.8408ZM12.2416 13.004V13.22H14.2416V13.004H12.2416ZM13.1522 14.216C14.8477 14.3682 15.7936 14.9296 16.2867 15.702L17.9725 14.626C17.0255 13.1424 15.3794 12.4078 13.331 12.224L13.1522 14.216ZM16.3003 15.7229C16.8905 16.5986 17.2456 17.9222 17.2456 19.808H19.2456C19.2456 17.7098 18.8567 15.9374 17.9588 14.6051L16.3003 15.7229ZM17.2456 19.808C17.2456 21.4205 16.9694 22.5297 16.5299 23.2439L18.2332 24.2921C18.9457 23.1343 19.2456 21.6035 19.2456 19.808H17.2456ZM16.5202 23.26C16.116 23.9454 15.4513 24.4698 14.4182 24.7939L15.0169 26.7021C16.4319 26.2582 17.5431 25.4626 18.2429 24.276L16.5202 23.26ZM14.4302 24.7902C13.36 25.1113 11.8956 25.288 10.0016 25.288V27.288C11.9955 27.288 13.6752 27.1047 15.0049 26.7058L14.4302 24.7902ZM10.0016 25.288C8.67487 25.288 7.47299 25.2524 6.39466 25.1821L6.2645 27.1779C7.39417 27.2516 8.64029 27.288 10.0016 27.288V25.288ZM6.3961 25.1822C5.34042 25.1118 4.3479 25.0066 3.41792 24.8671L3.12124 26.8449C4.11126 26.9934 5.15874 27.1042 6.26306 27.1778L6.3961 25.1822ZM3.44196 24.871C2.51528 24.7088 1.60035 24.5003 0.69704 24.2456L0.154119 26.1704C1.12281 26.4437 2.10388 26.6672 3.0972 26.841L3.44196 24.871ZM1.41886 25.3237L1.85086 21.6157L-0.135702 21.3843L-0.567702 25.0923L1.41886 25.3237ZM0.718591 22.4903C2.10283 22.6846 3.47553 22.8425 4.83665 22.964L5.01451 20.972C3.68763 20.8535 2.34833 20.6994 0.996568 20.5097L0.718591 22.4903ZM4.8382 22.9642C6.23462 23.0867 7.61978 23.148 8.99358 23.148V21.148C7.67938 21.148 6.35254 21.0893 5.01296 20.9718L4.8382 22.9642ZM8.99358 23.148C9.95113 23.148 10.788 23.0617 11.4568 22.8489L10.8504 20.9431C10.4632 21.0663 9.86003 21.148 8.99358 21.148V23.148ZM11.4953 22.8358C12.258 22.5584 12.8467 22.0424 13.1815 21.2984L11.3577 20.4776C11.2605 20.6936 11.1051 20.8496 10.8118 20.9562L11.4953 22.8358ZM13.1724 21.3179C13.5057 20.6181 13.6296 19.7249 13.6296 18.728H11.6296C11.6296 19.6031 11.5135 20.1499 11.3667 20.4581L13.1724 21.3179ZM13.6296 18.728C13.6296 17.6873 13.5065 16.7646 13.1799 16.0462L11.3592 16.8738C11.5127 17.2114 11.6296 17.8007 11.6296 18.728H13.6296ZM13.1951 16.0814C12.8711 15.2892 12.2776 14.7241 11.482 14.4128L10.7532 16.2752C11.0616 16.3959 11.2361 16.5748 11.344 16.8386L13.1951 16.0814ZM11.482 14.4128C10.7642 14.1319 9.86663 14.02 8.84958 14.02V16.02C9.75253 16.02 10.367 16.1241 10.7532 16.2752L11.482 14.4128ZM8.85699 14.02L3.99699 13.984L3.98217 15.984L8.84217 16.02L8.85699 14.02ZM4.98958 14.984V11.276H2.98958V14.984H4.98958ZM3.99704 12.276L8.82104 12.24L8.80612 10.24L3.98212 10.276L3.99704 12.276ZM8.84298 12.2396C9.70408 12.2142 10.4641 12.1126 11.0673 11.8903L10.3759 10.0137C10.0671 10.1274 9.55508 10.2178 8.78418 10.2404L8.84298 12.2396ZM11.0519 11.8959C11.7903 11.6374 12.3461 11.1287 12.6512 10.4041L10.8079 9.62794C10.7291 9.8153 10.6129 9.93056 10.3912 10.0081L11.0519 11.8959ZM12.6333 10.4441C12.94 9.79658 13.0536 8.99116 13.0536 8.108H11.0536C11.0536 8.85683 10.9511 9.32342 10.8258 9.58791L12.6333 10.4441ZM13.0536 8.108C13.0536 7.20602 12.9414 6.38628 12.6333 5.73591L10.8258 6.59209C10.9498 6.85372 11.0536 7.32998 11.0536 8.108H13.0536ZM12.6333 5.73591C12.2862 5.00316 11.6803 4.51799 10.9168 4.27507L10.3104 6.18093C10.6029 6.274 10.7409 6.41283 10.8258 6.59208L12.6333 5.73591ZM10.9298 4.27932C10.2782 4.0621 9.4591 3.976 8.52558 3.976V5.976C9.36806 5.976 9.94098 6.05789 10.2974 6.17668L10.9298 4.27932ZM8.52558 3.976C7.15819 3.976 5.88216 4.02482 4.69853 4.12345L4.86463 6.11654C5.985 6.02318 7.20497 5.976 8.52558 5.976V3.976ZM4.69678 4.1236C3.56297 4.2201 2.40539 4.32862 1.22407 4.44916L1.42709 6.43883C2.59777 6.31938 3.74419 6.2119 4.86638 6.1164L4.69678 4.1236ZM2.32034 5.34173L1.92434 1.48973L-0.0651774 1.69426L0.330823 5.54626L2.32034 5.34173ZM1.14444 2.56864C2.29944 2.31454 3.46578 2.14133 4.64377 2.04894L4.48739 0.0550613C3.21738 0.15467 1.95972 0.341455 0.714718 0.615355L1.14444 2.56864ZM4.66315 2.04723C5.84584 1.93128 7.25181 1.872 8.88558 1.872V-0.128C7.20735 -0.128 5.73332 -0.0672789 4.46801 0.0567703L4.66315 2.04723ZM38.6705 0.835998L38.5826 1.83213L38.598 1.83349L38.6135 1.83437L38.6705 0.835998ZM43.1345 1.592L44.1288 1.69853L44.2181 0.865297L43.4133 0.631653L43.1345 1.592ZM42.7025 5.624L42.642 6.62217L43.5951 6.67993L43.6968 5.73053L42.7025 5.624ZM40.5065 5.516L40.4695 6.51532L40.4708 6.51536L40.5065 5.516ZM38.3825 5.48L38.3503 6.47948L38.3664 6.48H38.3825V5.48ZM32.8025 6.164L32.2348 5.34079L32.228 5.34547L32.2213 5.35027L32.8025 6.164ZM31.3625 8.684L32.3338 8.92187L32.3349 8.91737L31.3625 8.684ZM31.3625 18.512L30.3901 18.7454L30.3912 18.7499L31.3625 18.512ZM32.8025 20.996L32.2213 21.8097L32.228 21.8145L32.2348 21.8192L32.8025 20.996ZM39.8585 21.644L39.816 20.6449L39.8585 21.644ZM43.2065 21.392L44.1998 21.2767L44.0854 20.2906L43.0985 20.3979L43.2065 21.392ZM43.6745 25.424L43.9728 26.3785L44.7633 26.1314L44.6679 25.3087L43.6745 25.424ZM40.1465 26.18L40.0274 25.1871L40.0176 25.1883L40.0079 25.1897L40.1465 26.18ZM29.4905 25.208L29.0107 26.0854L29.0188 26.0898L29.027 26.0941L29.4905 25.208ZM26.1425 21.14L25.2013 21.4779L25.2052 21.4885L26.1425 21.14ZM26.1425 6.02L25.2051 5.67149L25.2013 5.68213L26.1425 6.02ZM29.4905 1.988L29.9597 2.87113L29.9646 2.86847L29.4905 1.988ZM35.6825 1.728C36.8406 1.728 37.8054 1.76355 38.5826 1.83213L38.7584 -0.160132C37.9037 -0.235551 36.8764 -0.272001 35.6825 -0.272001V1.728ZM38.6135 1.83437C39.4225 1.8806 40.1522 1.96098 40.8046 2.07346L41.1444 0.102539C40.4048 -0.0249777 39.5985 -0.112606 38.7276 -0.162374L38.6135 1.83437ZM40.8046 2.07346C41.4605 2.18655 42.1441 2.34575 42.8557 2.55235L43.4133 0.631653C42.6369 0.406243 41.8805 0.229446 41.1444 0.102539L40.8046 2.07346ZM42.1402 1.48547L41.7082 5.51747L43.6968 5.73053L44.1288 1.69853L42.1402 1.48547ZM42.763 4.62583C41.9642 4.57742 41.2238 4.54098 40.5422 4.51664L40.4708 6.51536C41.1332 6.53902 41.8569 6.57458 42.642 6.62217L42.763 4.62583ZM40.5435 4.51669C39.8812 4.49215 39.1607 4.48 38.3825 4.48V6.48C39.1404 6.48 39.8358 6.49184 40.4695 6.51531L40.5435 4.51669ZM38.4148 4.48052C37.6566 4.45606 36.7452 4.444 35.6825 4.444V6.444C36.7318 6.444 37.6204 6.45593 38.3503 6.47948L38.4148 4.48052ZM35.6825 4.444C34.3424 4.444 33.1571 4.70469 32.2348 5.34079L33.3703 6.98721C33.8399 6.66331 34.5746 6.444 35.6825 6.444V4.444ZM32.2213 5.35027C31.2762 6.02533 30.7074 7.12867 30.3901 8.45063L32.3349 8.91737C32.5936 7.83933 32.9848 7.26267 33.3838 6.97773L32.2213 5.35027ZM30.3912 8.44613C30.0753 9.73626 29.9305 11.4606 29.9305 13.58H31.9305C31.9305 11.5234 32.0738 9.98374 32.3338 8.92187L30.3912 8.44613ZM29.9305 13.58C29.9305 15.7005 30.0755 17.4343 30.3901 18.7454L32.3349 18.2786C32.0736 17.1897 31.9305 15.6355 31.9305 13.58H29.9305ZM30.3912 18.7499C30.7103 20.0526 31.2812 21.1383 32.2213 21.8097L33.3838 20.1823C32.9798 19.8937 32.5908 19.3234 32.3338 18.2741L30.3912 18.7499ZM32.2348 21.8192C33.1571 22.4553 34.3424 22.716 35.6825 22.716V20.716C34.5746 20.716 33.8399 20.4967 33.3703 20.1728L32.2348 21.8192ZM35.6825 22.716C37.3468 22.716 38.754 22.6919 39.901 22.6431L39.816 20.6449C38.707 20.6921 37.3302 20.716 35.6825 20.716V22.716ZM39.901 22.6431C41.0506 22.5942 42.1884 22.5086 43.3146 22.3861L43.0985 20.3979C42.0166 20.5154 40.9225 20.5978 39.816 20.6449L39.901 22.6431ZM42.2132 21.5073L42.6812 25.5393L44.6679 25.3087L44.1998 21.2767L42.2132 21.5073ZM43.3762 24.4695C42.2827 24.8112 41.1667 25.0504 40.0274 25.1871L40.2657 27.1729C41.5263 27.0216 42.7623 26.7568 43.9728 26.3785L43.3762 24.4695ZM40.0079 25.1897C38.8696 25.349 37.4314 25.432 35.6825 25.432V27.432C37.4857 27.432 39.0235 27.347 40.2852 27.1703L40.0079 25.1897ZM35.6825 25.432C33.2072 25.432 31.3205 25.0367 29.954 24.3219L29.027 26.0941C30.7806 27.0113 33.0218 27.432 35.6825 27.432V25.432ZM29.9703 24.3306C28.6751 23.6223 27.7045 22.4717 27.0798 20.7915L25.2052 21.4885C25.9725 23.5523 27.2339 25.1137 29.0107 26.0854L29.9703 24.3306ZM27.0837 20.8021C26.4667 19.0834 26.1345 16.6928 26.1345 13.58H24.1345C24.1345 16.8032 24.4743 19.4526 25.2013 21.4779L27.0837 20.8021ZM26.1345 13.58C26.1345 10.4672 26.4667 8.07661 27.0837 6.35786L25.2013 5.68213C24.4743 7.70739 24.1345 10.3568 24.1345 13.58H26.1345ZM27.0798 6.36849C27.704 4.68973 28.6718 3.55529 29.9597 2.87111L29.0214 1.10488C27.2372 2.05271 25.9731 3.60627 25.2052 5.67151L27.0798 6.36849ZM29.9646 2.86847C31.3281 2.13429 33.2106 1.728 35.6825 1.728V-0.272001C33.0184 -0.272001 30.7729 0.161708 29.0164 1.10753L29.9646 2.86847ZM69.5186 1.16L70.4686 1.47232L70.9 0.159998H69.5186V1.16ZM63.4706 19.556L62.5206 19.2437L62.5186 19.25L63.4706 19.556ZM62.0306 23.048L61.1494 22.5752L61.1449 22.5836L61.1405 22.5921L62.0306 23.048ZM60.1226 25.388L60.7184 26.1911L60.7226 26.188L60.1226 25.388ZM57.2426 26.396L57.3292 27.3922L57.3367 27.3916L57.3441 27.3908L57.2426 26.396ZM55.2626 26.396L55.1982 27.3939L55.2002 27.3941L55.2626 26.396ZM53.0306 26.18L52.8984 27.1712L52.9026 27.1718L53.0306 26.18ZM51.1586 25.892L50.171 25.7351L50.0175 26.7009L50.9797 26.8759L51.1586 25.892ZM51.7706 22.04L51.815 21.041L50.9231 21.0013L50.783 21.8831L51.7706 22.04ZM54.3986 22.148L54.3629 23.1474L54.3807 23.148H54.3986V22.148ZM57.1346 21.212L56.3753 20.5612L56.3614 20.5774L56.3483 20.5942L57.1346 21.212ZM57.9266 19.772L58.8599 20.131L58.874 20.0945L58.8851 20.057L57.9266 19.772ZM58.7186 17.108L57.796 16.7222L57.7753 16.7716L57.76 16.823L58.7186 17.108ZM59.5466 15.128L60.4692 15.5138L60.4877 15.4694L60.5019 15.4235L59.5466 15.128ZM63.8666 1.16V0.159998H63.1291L62.9112 0.864529L63.8666 1.16ZM54.1466 1.16L55.1059 0.87769L54.8947 0.159998H54.1466V1.16ZM58.0346 14.372L57.0752 14.6543L57.0788 14.6661L58.0346 14.372ZM60.2666 14.84L61.2177 14.5313L60.9934 13.84H60.2666V14.84ZM61.5986 18.944V19.944H62.9745L62.5497 18.6353L61.5986 18.944ZM54.6866 18.26L53.9978 18.985H53.9978L54.6866 18.26ZM53.6066 16.388L54.5636 16.098L54.5593 16.0838L54.5546 16.0698L53.6066 16.388ZM48.4946 1.16V0.159998H47.104L47.5466 1.47824L48.4946 1.16ZM68.5686 0.847677L62.5206 19.2437L64.4206 19.8683L70.4686 1.47232L68.5686 0.847677ZM62.5186 19.25C62.1005 20.5507 61.6425 21.6563 61.1494 22.5752L62.9117 23.5208C63.4747 22.4717 63.9767 21.2493 64.4226 19.862L62.5186 19.25ZM61.1405 22.5921C60.6953 23.4614 60.1518 24.1161 59.5226 24.588L60.7226 26.188C61.6293 25.5079 62.3579 24.6026 62.9206 23.5039L61.1405 22.5921ZM59.5267 24.5849C58.962 25.0039 58.1867 25.2945 57.1411 25.4012L57.3441 27.3908C58.6505 27.2575 59.7951 26.8761 60.7184 26.1911L59.5267 24.5849ZM57.156 25.3998C56.6684 25.4422 56.0609 25.4439 55.325 25.3979L55.2002 27.3941C56.0003 27.4441 56.7128 27.4458 57.3292 27.3922L57.156 25.3998ZM55.327 25.3981C54.6044 25.3515 53.8816 25.2815 53.1586 25.1882L52.9026 27.1718C53.6676 27.2705 54.4328 27.3445 55.1982 27.3939L55.327 25.3981ZM53.1627 25.1888C52.4533 25.0942 51.8456 25.0005 51.3375 24.9081L50.9797 26.8759C51.5275 26.9755 52.1678 27.0738 52.8984 27.1712L53.1627 25.1888ZM52.1462 26.0489L52.7582 22.1969L50.783 21.8831L50.171 25.7351L52.1462 26.0489ZM51.7262 23.039C52.8076 23.0871 53.6868 23.1232 54.3629 23.1474L54.4343 21.1486C53.7664 21.1248 52.8936 21.0889 51.815 21.041L51.7262 23.039ZM54.3986 23.148C55.1515 23.148 55.8339 23.0716 56.4068 22.8807L55.7744 20.9833C55.4832 21.0804 55.0377 21.148 54.3986 21.148V23.148ZM56.4068 22.8807C57.0117 22.6791 57.5279 22.33 57.9209 21.8298L56.3483 20.5942C56.2133 20.766 56.0335 20.897 55.7744 20.9833L56.4068 22.8807ZM57.8938 21.8628C58.2838 21.4078 58.5977 20.8127 58.8599 20.131L56.9932 19.413C56.7754 19.9793 56.5613 20.3442 56.3753 20.5612L57.8938 21.8628ZM58.8851 20.057L59.6771 17.393L57.76 16.823L56.968 19.487L58.8851 20.057ZM59.6412 17.4938L60.4692 15.5138L58.624 14.7422L57.796 16.7222L59.6412 17.4938ZM60.5019 15.4235L64.8219 1.45547L62.9112 0.864529L58.5912 14.8325L60.5019 15.4235ZM63.8666 2.16H69.5186V0.159998H63.8666V2.16ZM53.1873 1.44231L57.0753 14.6543L58.9939 14.0897L55.1059 0.87769L53.1873 1.44231ZM57.0788 14.6661C57.1855 15.0128 57.3978 15.3379 57.7416 15.5614C58.0705 15.7752 58.4336 15.84 58.7546 15.84V13.84C58.6916 13.84 58.7427 13.8268 58.8316 13.8846C58.8764 13.9137 58.9159 13.9517 58.9459 13.9935C58.9749 14.0339 58.9867 14.066 58.9904 14.0779L57.0788 14.6661ZM58.7546 15.84H60.2666V13.84H58.7546V15.84ZM59.3154 15.1487L60.6474 19.2527L62.5497 18.6353L61.2177 14.5313L59.3154 15.1487ZM61.5986 17.944H56.7746V19.944H61.5986V17.944ZM56.7746 17.944C56.0209 17.944 55.6088 17.7568 55.3753 17.535L53.9978 18.985C54.7243 19.6752 55.7043 19.944 56.7746 19.944V17.944ZM55.3753 17.535C55.0486 17.2246 54.7658 16.7651 54.5636 16.098L52.6496 16.678C52.9274 17.5949 53.3645 18.3834 53.9978 18.985L55.3753 17.535ZM54.5546 16.0698L49.4426 0.841754L47.5466 1.47824L52.6586 16.7062L54.5546 16.0698ZM48.4946 2.16H54.1466V0.159998H48.4946V2.16Z" fill="url(#paint1_diamond_87_107)"/>
<defs>
<linearGradient id="paint0_linear_87_107" x1="34.5" y1="-10" x2="34.5" y2="33" gradientUnits="userSpaceOnUse">
<stop offset="0.15625" stop-color="#001AFF"/>
<stop offset="0.822917" stop-color="#FAFF00" stop-opacity="0.97"/>
</linearGradient>
<radialGradient id="paint1_diamond_87_107" cx="0" cy="0" r="1" gradientUnits="userSpaceOnUse" gradientTransform="translate(34.5 11.5) rotate(90) scale(21.5 35.5)">
<stop stop-color="#79FFF7"/>
<stop offset="1" stop-color="#076AFE"/>
</radialGradient>
</defs>
</svg>
