<svg width="30" height="47" viewBox="0 0 30 47" fill="none" xmlns="http://www.w3.org/2000/svg">
<path d="M15 1V46" stroke="#520096" stroke-width="2" stroke-linecap="round" stroke-linejoin="round"/>
<path d="M27.25 14.5C27.25 13.3838 27.0237 12.2785 26.5839 11.2472C26.1442 10.2159 25.4997 9.27889 24.6872 8.48959C23.8747 7.70029 22.9101 7.07419 21.8485 6.64702C20.7869 6.21986 19.6491 6 18.5 6H10.625C8.30436 6 6.07876 6.89553 4.43782 8.48959C2.79687 10.0837 1.875 12.2457 1.875 14.5C1.875 16.7543 2.79687 18.9163 4.43782 20.5104C6.07876 22.1045 8.30436 23 10.625 23H20.25C22.5706 23 24.7962 23.8955 26.4372 25.4896C28.0781 27.0837 29 29.2457 29 31.5C29 33.7543 28.0781 35.9163 26.4372 37.5104C24.7962 39.1045 22.5706 40 20.25 40H9.75C7.42936 40 5.20376 39.1045 3.56282 37.5104C1.92187 35.9163 1 33.7543 1 31.5" stroke="#520096" stroke-width="2" stroke-linecap="round" stroke-linejoin="round"/>
</svg>
