<svg width="41" height="37" viewBox="0 0 41 37" fill="none" xmlns="http://www.w3.org/2000/svg">
<path d="M20.5 0.999998C10.835 0.999998 3 8.83501 3 18.5C3 28.165 10.835 36 20.5 36C30.165 36 38 28.165 38 18.5C38 8.83502 30.165 0.999999 20.5 0.999998Z" stroke="#520096" stroke-width="2" stroke-linecap="round" stroke-linejoin="round"/>
<path d="M38 18.5L3 18.5" stroke="#520096" stroke-width="2" stroke-linecap="round" stroke-linejoin="round"/>
<path d="M20.1632 36C15.7438 31.2079 13.2323 24.9889 13.0959 18.5C13.2323 12.0111 15.7438 5.79212 20.1632 0.999999C24.5825 5.79212 27.094 12.0111 27.2305 18.5C27.094 24.9889 24.5825 31.2079 20.1632 36V36Z" stroke="#520096" stroke-width="2" stroke-linecap="round" stroke-linejoin="round"/>
<rect x="21" y="26" width="20" height="10" rx="1" fill="#520096"/>
<path d="M23.6598 34V28.1818H27.4439V29.0653H24.7138V30.6449H27.2479V31.5284H24.7138V33.1165H27.4666V34H23.6598ZM33.3004 28.1818V34H32.3629L29.6214 30.0369H29.5732V34H28.5192V28.1818H29.4624L32.201 32.1477H32.2521V28.1818H33.3004ZM38.3466 30.0398C38.2992 29.8864 38.2339 29.7491 38.1506 29.6278C38.0691 29.5047 37.9706 29.3996 37.8551 29.3125C37.7415 29.2254 37.6108 29.16 37.4631 29.1165C37.3153 29.071 37.1544 29.0483 36.9801 29.0483C36.6676 29.0483 36.3892 29.1269 36.1449 29.2841C35.9006 29.4413 35.7083 29.6723 35.5682 29.9773C35.4299 30.2803 35.3608 30.6496 35.3608 31.0852C35.3608 31.5246 35.4299 31.8968 35.5682 32.2017C35.7064 32.5066 35.8987 32.7386 36.1449 32.8977C36.3911 33.0549 36.6771 33.1335 37.0028 33.1335C37.2983 33.1335 37.554 33.0767 37.7699 32.9631C37.9877 32.8494 38.1553 32.6884 38.2727 32.4801C38.3902 32.2699 38.4489 32.0237 38.4489 31.7415L38.6875 31.7784H37.108V30.9545H39.4688V31.6534C39.4688 32.1515 39.3627 32.5824 39.1506 32.946C38.9384 33.3097 38.6468 33.59 38.2756 33.7869C37.9044 33.982 37.4782 34.0795 36.9972 34.0795C36.4612 34.0795 35.9905 33.9593 35.5852 33.7188C35.1818 33.4763 34.8665 33.1326 34.6392 32.6875C34.4138 32.2405 34.3011 31.7102 34.3011 31.0966C34.3011 30.6269 34.3674 30.2074 34.5 29.8381C34.6345 29.4688 34.822 29.1553 35.0625 28.8977C35.303 28.6383 35.5852 28.4413 35.9091 28.3068C36.233 28.1705 36.5852 28.1023 36.9659 28.1023C37.2879 28.1023 37.5881 28.1496 37.8665 28.2443C38.1449 28.3371 38.392 28.4697 38.608 28.642C38.8258 28.8144 39.0047 29.0189 39.1449 29.2557C39.285 29.4924 39.3769 29.7538 39.4205 30.0398H38.3466Z" fill="white"/>
</svg>
