<svg width="39" height="37" viewBox="0 0 39 37" fill="none" xmlns="http://www.w3.org/2000/svg">
<path d="M18.5 36C28.165 36 36 28.165 36 18.5C36 8.83502 28.165 1 18.5 1C8.83502 1 1 8.83502 1 18.5C1 28.165 8.83502 36 18.5 36Z" stroke="#520096" stroke-width="2" stroke-linecap="round" stroke-linejoin="round"/>
<path d="M1 18.5H36" stroke="#520096" stroke-width="2" stroke-linecap="round" stroke-linejoin="round"/>
<path d="M18.8368 1C23.2562 5.79212 25.7677 12.0111 25.9041 18.5C25.7677 24.9889 23.2562 31.2079 18.8368 36C14.4175 31.2079 11.906 24.9889 11.7695 18.5C11.906 12.0111 14.4175 5.79212 18.8368 1V1Z" stroke="#520096" stroke-width="2" stroke-linecap="round" stroke-linejoin="round"/>
<rect x="19" y="27" width="20" height="10" rx="1" fill="#520096"/>
<path d="M22.1484 35.0795V34.1932H22.4808C22.6304 34.1932 22.7536 34.1714 22.8501 34.1278C22.9467 34.0843 23.0244 34.0218 23.0831 33.9403C23.1437 33.8589 23.1939 33.7642 23.2337 33.6562L23.3104 33.4602L21.2308 29.1818H22.3331L23.782 32.2955L25.0348 29.1818H26.12L24.1143 33.9261C24.0215 34.1307 23.9145 34.321 23.7933 34.4972C23.6721 34.6714 23.514 34.8125 23.3189 34.9205C23.1257 35.0265 22.8738 35.0795 22.5632 35.0795H22.1484ZM30.3565 35L28.4418 32.4574H27.9247V35H26.8707V29.1818H27.9247V31.5739H28.1889L30.2571 29.1818H31.5554L29.2571 31.8352L31.6548 35H30.3565ZM32.3707 35V29.1818H34.5526C34.9995 29.1818 35.3745 29.2652 35.6776 29.4318C35.9825 29.5985 36.2126 29.8277 36.3679 30.1193C36.5251 30.4091 36.6037 30.7386 36.6037 31.108C36.6037 31.4811 36.5251 31.8125 36.3679 32.1023C36.2107 32.392 35.9787 32.6203 35.6719 32.7869C35.3651 32.9517 34.9872 33.0341 34.5384 33.0341H33.0923V32.1676H34.3963C34.6577 32.1676 34.8717 32.1222 35.0384 32.0312C35.205 31.9403 35.3281 31.8153 35.4077 31.6562C35.4891 31.4972 35.5298 31.3144 35.5298 31.108C35.5298 30.9015 35.4891 30.7197 35.4077 30.5625C35.3281 30.4053 35.2041 30.2831 35.0355 30.196C34.8688 30.107 34.6539 30.0625 34.3906 30.0625H33.4247V35H32.3707Z" fill="white"/>
</svg>
