<svg width="339" height="129" viewBox="0 0 339 129" fill="none" xmlns="http://www.w3.org/2000/svg">
<g clip-path="url(#clip0_1_82)">
<path d="M150.787 38.6147L142.366 87.1515H133.503L141.924 38.6147H150.787ZM144.352 68.8554L142.051 68.887C142.281 66.949 142.733 64.9898 143.406 63.0095C144.1 61.0293 145.036 59.2282 146.214 57.6059C147.39 55.9628 148.831 54.6567 150.534 53.6876C152.258 52.6976 154.255 52.2341 156.527 52.2973C158.44 52.3394 160.028 52.7292 161.289 53.4665C162.571 54.1827 163.57 55.1623 164.285 56.4053C165 57.6271 165.473 59.028 165.704 60.608C165.936 62.1669 165.957 63.81 165.768 65.5375L162.172 87.1515H153.247L156.905 65.4427C157.032 64.3261 156.999 63.3255 156.81 62.4408C156.642 61.5348 156.232 60.8187 155.58 60.292C154.95 59.7443 154.014 59.4598 152.773 59.4388C151.407 59.3966 150.229 59.6389 149.241 60.1656C148.274 60.6922 147.454 61.419 146.781 62.3459C146.108 63.2517 145.583 64.2735 145.204 65.4111C144.826 66.5275 144.542 67.6757 144.352 68.8554Z" fill="#520096"/>
<path d="M182.445 52.9609L176.547 87.1515H167.654L173.583 52.9609H182.445ZM174.561 44.2078C174.519 42.7752 174.981 41.6272 175.948 40.7635C176.937 39.8997 178.124 39.4574 179.512 39.4362C180.837 39.4152 181.993 39.8155 182.981 40.637C183.97 41.4376 184.464 42.5225 184.464 43.8918C184.506 45.3243 184.033 46.4725 183.045 47.3362C182.057 48.1998 180.879 48.6423 179.512 48.6633C178.188 48.6844 177.031 48.2946 176.043 47.4941C175.075 46.6937 174.581 45.5981 174.561 44.2078Z" fill="#520096"/>
<path d="M203.634 63.8311L202.372 70.9725H185.057L186.286 63.8311H203.634Z" fill="#520096"/>
<path d="M221.225 87.7835C218.891 87.7414 216.789 87.2989 214.918 86.4563C213.047 85.5926 211.48 84.4129 210.219 82.9171C208.977 81.4214 208.064 79.6835 207.475 77.7033C206.886 75.723 206.676 73.5954 206.844 71.3202L206.97 70.0246C207.223 67.6441 207.801 65.3795 208.705 63.2307C209.608 61.0819 210.817 59.186 212.332 57.5429C213.846 55.8786 215.633 54.583 217.693 53.656C219.775 52.7081 222.088 52.2657 224.631 52.3289C227.008 52.371 229.037 52.8556 230.719 53.7824C232.401 54.7094 233.757 55.9523 234.787 57.5113C235.818 59.0701 236.522 60.8503 236.901 62.8515C237.28 64.8318 237.353 66.9068 237.121 69.0766L236.616 72.8685H210.25L211.227 66.8014L228.637 66.833L228.795 66.0431C228.963 64.8844 228.911 63.81 228.637 62.8199C228.364 61.8087 227.849 60.9977 227.092 60.3868C226.335 59.7759 225.326 59.4493 224.064 59.4072C222.614 59.365 221.394 59.6705 220.406 60.3236C219.418 60.9766 218.608 61.8403 217.977 62.9147C217.346 63.9891 216.863 65.1583 216.526 66.4223C216.19 67.6651 215.948 68.8659 215.801 70.0246L215.675 71.2886C215.57 72.4051 215.601 73.5216 215.769 74.6382C215.937 75.7336 216.263 76.7237 216.747 77.6085C217.252 78.4933 217.935 79.2095 218.798 79.7573C219.68 80.305 220.784 80.5999 222.109 80.6421C223.791 80.6841 225.336 80.3576 226.745 79.6625C228.175 78.9462 229.457 77.9982 230.593 76.8184L234.567 81.6216C233.62 83.0541 232.411 84.2338 230.94 85.1607C229.489 86.0666 227.922 86.7302 226.241 87.1515C224.558 87.5939 222.886 87.8046 221.225 87.7835Z" fill="#520096"/>
<path d="M258.404 79.1884L265.406 38.6147H274.332L265.942 87.1515H257.962L258.404 79.1884ZM238.976 70.7198L239.039 70.0246C239.312 67.939 239.796 65.8324 240.49 63.7046C241.205 61.577 242.171 59.6389 243.391 57.8904C244.632 56.1419 246.157 54.7516 247.964 53.7192C249.773 52.687 251.917 52.213 254.399 52.2973C256.523 52.3816 258.277 52.9819 259.665 54.0985C261.054 55.1939 262.126 56.6159 262.883 58.3644C263.66 60.0918 264.187 61.9351 264.46 63.8943C264.754 65.8324 264.869 67.6757 264.807 69.4242L264.648 70.9409C264.312 72.8159 263.745 74.754 262.945 76.7553C262.168 78.7355 261.147 80.5788 259.887 82.2852C258.646 83.9705 257.163 85.3293 255.44 86.3615C253.737 87.3937 251.791 87.8783 249.605 87.8151C247.313 87.7519 245.431 87.1936 243.96 86.1403C242.508 85.0659 241.383 83.6861 240.585 82.0008C239.786 80.3154 239.27 78.4827 239.039 76.5025C238.807 74.5222 238.787 72.5946 238.976 70.7198ZM247.964 69.993L247.902 70.6566C247.818 71.5624 247.765 72.5842 247.744 73.7218C247.744 74.8382 247.86 75.9232 248.091 76.9764C248.343 78.0088 248.795 78.8724 249.447 79.5677C250.119 80.2418 251.087 80.6104 252.349 80.6736C253.947 80.7369 255.323 80.3682 256.48 79.5677C257.637 78.7461 258.562 77.6927 259.256 76.4077C259.971 75.1227 260.443 73.7744 260.675 72.363L261.275 68.1602C261.379 67.1912 261.379 66.2116 261.275 65.2215C261.169 64.2313 260.927 63.3045 260.549 62.4408C260.192 61.577 259.645 60.8713 258.908 60.3236C258.193 59.7759 257.258 59.4914 256.102 59.4704C254.693 59.4072 253.494 59.7127 252.506 60.3868C251.539 61.0398 250.75 61.9035 250.141 62.9779C249.531 64.0312 249.047 65.1793 248.69 66.4223C248.354 67.6651 248.112 68.8554 247.964 69.993Z" fill="#520096"/>
<path d="M292.05 79.1884L299.051 38.6147H307.976L299.587 87.1515H291.608L292.05 79.1884ZM272.622 70.7198L272.684 70.0246C272.958 67.939 273.441 65.8324 274.136 63.7046C274.85 61.577 275.817 59.6389 277.037 57.8904C278.278 56.1419 279.803 54.7516 281.61 53.7192C283.419 52.687 285.563 52.213 288.044 52.2973C290.167 52.3816 291.923 52.9819 293.311 54.0985C294.699 55.1939 295.772 56.6159 296.529 58.3644C297.306 60.0918 297.832 61.9351 298.105 63.8943C298.4 65.8324 298.515 67.6757 298.452 69.4242L298.294 70.9409C297.958 72.8159 297.39 74.754 296.591 76.7553C295.814 78.7355 294.793 80.5788 293.532 82.2852C292.291 83.9705 290.809 85.3293 289.085 86.3615C287.382 87.3937 285.437 87.8783 283.251 87.8151C280.959 87.7519 279.077 87.1936 277.605 86.1403C276.154 85.0659 275.029 83.6861 274.23 82.0008C273.432 80.3154 272.916 78.4827 272.684 76.5025C272.453 74.5222 272.433 72.5946 272.622 70.7198ZM281.61 69.993L281.548 70.6566C281.464 71.5624 281.411 72.5842 281.389 73.7218C281.389 74.8382 281.506 75.9232 281.736 76.9764C281.989 78.0088 282.441 78.8724 283.092 79.5677C283.765 80.2418 284.733 80.6104 285.994 80.6736C287.592 80.7369 288.969 80.3682 290.125 79.5677C291.283 78.7461 292.207 77.6927 292.902 76.4077C293.617 75.1227 294.089 73.7744 294.321 72.363L294.92 68.1602C295.025 67.1912 295.025 66.2116 294.92 65.2215C294.815 64.2313 294.573 63.3045 294.195 62.4408C293.837 61.577 293.29 60.8713 292.554 60.3236C291.839 59.7759 290.904 59.4914 289.748 59.4704C288.338 59.4072 287.14 59.7127 286.152 60.3868C285.185 61.0398 284.396 61.9035 283.787 62.9779C283.176 64.0312 282.693 65.1793 282.336 66.4223C282 67.6651 281.758 68.8554 281.61 69.993Z" fill="#520096"/>
<path d="M315.319 82.8224L329.134 52.9609H338.911L318.915 92.3338C318.326 93.5768 317.653 94.7248 316.897 95.7782C316.16 96.8526 315.319 97.7794 314.373 98.5589C313.447 99.3595 312.386 99.9704 311.188 100.392C310.01 100.834 308.686 101.055 307.213 101.055C306.478 101.055 305.763 100.992 305.069 100.866C304.375 100.739 303.681 100.592 302.988 100.423L303.619 93.6926C303.849 93.7137 304.08 93.7347 304.312 93.7558C304.522 93.7769 304.733 93.7874 304.943 93.7874C305.995 93.8085 306.919 93.6821 307.718 93.4082C308.538 93.1554 309.253 92.7341 309.863 92.1442C310.473 91.5754 311.02 90.8276 311.503 89.9007L315.319 82.8224ZM316.738 52.9609L319.703 78.2089L319.293 87.4043L313.363 88.0995L307.529 52.9609H316.738Z" fill="#520096"/>
<path d="M11.8956 48.5917L18.3548 39.5854L23.1992 23.4604L27.9897 19.6853L31.9729 14.9934L40.0469 7.65902C42.3614 6.34672 48.2178 3.35542 53.1268 1.88853C58.0357 0.421637 61.4879 1.27732 62.6002 1.88853L74.0653 5.34004L81.924 12.8362L88.5985 22.5436L91.2898 31.0106L103.078 51.45L107.761 60.618L109.376 70.4872V78.1991L104.693 81.9742H99.8483C98.3591 81.2552 94.9177 79.817 93.0661 79.817C91.2145 79.817 89.3162 81.2552 88.5985 81.9742L83.7541 78.1991V81.9742L81.924 91.304L77.2949 99.2317L70.4589 102.791H63.5153V114.278V122.206L59.5321 126.682L51.6734 127.599L43.9762 122.206L40.0469 111.959L38.0553 104.031L36.602 102.791L25.8905 91.304L24.814 84.8325L23.1992 79.817L17.2782 84.8325L10.1193 87.2054L4.52133 84.8325L2.20679 78.1991V70.4872L4.52133 59.1619L11.8956 48.5917Z" fill="#520096"/>
<path fill-rule="evenodd" clip-rule="evenodd" d="M75.3809 31.7938C74.9982 31.8161 74.5595 31.8419 74.1418 31.8419C73.3371 31.8419 72.4222 32.0021 71.745 32.2878C71.0997 32.56 70.4655 32.6215 70.0465 32.6621H70.0461C69.5675 32.7085 69.3315 32.732 69.1103 32.8072C68.2402 33.1033 67.6303 33.7216 67.1278 34.654C66.6244 35.5879 66.3011 36.6947 65.9472 37.9062C65.9307 37.9625 65.9142 38.019 65.8976 38.0757C65.8272 38.3161 65.7026 38.5257 65.5408 38.6948C65.4756 39.2222 65.4268 39.7792 65.4052 40.335C65.3609 41.4838 65.4389 42.5125 65.6612 43.2443C65.9868 44.3161 66.4809 44.9156 67.1022 45.3555C67.792 45.8439 68.6963 46.1809 69.9815 46.5948C71.2651 47.0082 72.1523 46.9695 73.7565 46.8996L73.8113 46.8972C73.9553 46.891 74.1858 46.8137 74.627 46.4721C74.7941 46.3429 74.9511 46.2091 75.1353 46.052C75.192 46.0037 75.2513 45.9531 75.3142 45.8998C75.5593 45.6923 75.859 45.4446 76.1852 45.2318C76.3859 45.1009 76.6129 44.8398 76.8322 44.3905C77.0476 43.9494 77.2073 43.4262 77.3286 42.9028C77.5031 42.1494 77.8561 41.24 78.1332 40.6193C78.1762 40.5229 78.2118 40.4034 78.266 40.1761C78.2718 40.1521 78.278 40.1258 78.2847 40.0974C78.3312 39.8986 78.4011 39.5999 78.5067 39.3092C78.6527 38.9069 78.7069 38.3238 78.6917 37.5332C78.6848 37.1778 78.6656 36.8184 78.6455 36.4397C78.644 36.4113 78.6425 36.3827 78.641 36.3542C78.6199 35.9574 78.5981 35.5312 78.5981 35.1283C78.5981 34.0254 78.4367 33.2568 77.9731 32.4121C77.7435 31.9939 77.4664 31.8369 76.8853 31.7771C76.5534 31.7431 76.1697 31.7507 75.6898 31.7762C75.5924 31.7814 75.4889 31.7874 75.3809 31.7938ZM63.483 35.6367C63.1536 35.8505 62.9074 36.1921 62.8244 36.6081C62.6228 37.6176 62.4438 38.9094 62.3932 40.2181C62.3435 41.504 62.4124 42.9216 62.7775 44.1236C63.2921 45.8178 64.1784 46.9835 65.3626 47.8219C66.4782 48.6116 67.8042 49.0658 69.059 49.47C70.8622 50.0507 72.2261 49.9903 73.7568 49.9226C73.8183 49.9199 73.8801 49.9171 73.9424 49.9144C75.0467 49.8663 75.8991 49.3039 76.4698 48.8622C76.6992 48.6846 76.9285 48.489 77.1209 48.3247C77.1697 48.2831 77.2161 48.2436 77.2595 48.2069C77.4968 48.0059 77.6737 47.8645 77.83 47.7626C78.655 47.2244 79.1882 46.438 79.54 45.7175C79.8958 44.9886 80.1178 44.2199 80.2648 43.5856C80.3762 43.1044 80.6418 42.3966 80.8847 41.8526C81.0509 41.4805 81.1389 41.1248 81.1976 40.879C81.2058 40.8444 81.2135 40.8121 81.2207 40.7819C81.272 40.5662 81.2987 40.4536 81.3395 40.3413C81.685 39.3893 81.722 38.3376 81.7054 37.475C81.6976 37.0657 81.6757 36.6564 81.656 36.2876C81.6543 36.256 81.6527 36.2246 81.651 36.1937C81.6294 35.7876 81.6124 35.439 81.6124 35.1283C81.6124 33.6444 81.3776 32.3474 80.6143 30.9568C79.7707 29.42 78.4369 28.9007 77.1929 28.7728C76.6124 28.7132 76.03 28.7339 75.5307 28.7603C75.3952 28.7674 75.267 28.775 75.1443 28.7821C74.7802 28.8034 74.4631 28.8218 74.1418 28.8218C73.0151 28.8218 71.6898 29.0343 70.5753 29.5044C70.4006 29.5781 70.1887 29.6141 69.7559 29.6561C69.7247 29.6591 69.6919 29.6622 69.6575 29.6654C69.2791 29.7007 68.71 29.754 68.141 29.9476C66.3285 30.5644 65.2101 31.8562 64.4755 33.219C64.0582 33.9933 63.7423 34.8354 63.483 35.6367Z" fill="white"/>
<path fill-rule="evenodd" clip-rule="evenodd" d="M39.1757 33.6459C38.8186 33.9033 38.4819 34.2305 38.2861 34.4546C38.2239 34.5258 38.1528 34.612 38.0582 34.7267C37.9693 34.8344 37.8628 34.9632 37.7518 35.0909C37.567 35.3037 37.2831 35.6166 36.9471 35.8581C36.9261 35.8892 36.8961 35.9383 36.8398 36.033C36.8363 36.0388 36.8327 36.0449 36.8288 36.0514C36.7684 36.1531 36.6638 36.3297 36.5373 36.4969C36.4003 36.678 36.185 36.9218 35.8655 37.1149C35.8564 37.1238 35.8326 37.1489 35.7969 37.199C35.7287 37.2951 35.6493 37.4385 35.5682 37.6308C35.4043 38.019 35.2872 38.476 35.2223 38.834C35.0946 39.5373 35.0958 40.221 35.0972 41.0952C35.0973 41.1896 35.0975 41.2863 35.0975 41.3853C35.0975 41.8142 35.0922 42.2297 35.0872 42.6332C35.063 44.5451 35.0422 46.1864 35.6004 47.6998C35.8036 48.2506 35.938 48.3336 35.9735 48.3556C35.975 48.3564 35.9762 48.3572 35.9774 48.358C36.0267 48.3896 36.1199 48.437 36.325 48.5032C36.5015 48.5602 36.6966 48.612 36.9667 48.6836C37.0318 48.7008 37.1012 48.7193 37.1758 48.7392C38.2031 49.0136 39.3684 48.8399 40.8367 48.6209C40.909 48.6101 40.9819 48.5992 41.0557 48.5883C41.7572 48.4843 42.3973 48.3147 43.0474 48.0514C43.2573 47.9664 43.4878 47.8997 43.6646 47.8507C43.7797 47.8189 43.8591 47.7977 43.9334 47.778C44.0162 47.756 44.0927 47.7356 44.2057 47.7038C44.3763 47.6558 44.5009 47.6161 44.5893 47.5815C44.6034 47.576 44.6149 47.5711 44.6242 47.5672C45.046 47.2291 45.525 46.9769 45.8754 46.7947C45.9194 46.772 45.9617 46.75 46.0025 46.7288C46.3565 46.5453 46.5992 46.4194 46.8018 46.2782C46.8108 46.272 46.87 46.2252 46.9821 46.0547C47.0358 45.9732 47.0918 45.8788 47.1586 45.7612C47.1776 45.7277 47.2009 45.6862 47.2263 45.641C47.2747 45.5547 47.3306 45.4551 47.3783 45.3731C47.4228 45.2961 47.4889 45.0894 47.4926 44.6078C47.4944 44.3833 47.4834 44.1464 47.4695 43.8734C47.4684 43.8534 47.4674 43.8331 47.4663 43.8126C47.4537 43.5699 47.4391 43.2879 47.4391 43.0201C47.4391 41.891 47.3078 40.8979 46.944 39.9545C46.7579 39.4718 46.6052 38.9462 46.4769 38.5043C46.4303 38.3437 46.3868 38.1942 46.3462 38.0619C46.3133 37.9547 46.2703 37.8454 46.2052 37.6795C46.1816 37.6196 46.1551 37.552 46.1252 37.4746C46.034 37.2391 45.899 36.8814 45.8317 36.5104C45.7857 36.2563 45.755 35.9833 45.7299 35.7606L45.7264 35.73C45.6985 35.4815 45.6742 35.2717 45.6401 35.0738C45.6061 34.877 45.5689 34.7342 45.5303 34.6313C45.4968 34.5423 45.4724 34.5108 45.471 34.5089C45.4363 34.4701 45.4034 34.4332 45.3719 34.3981C45.1851 34.1889 45.0547 34.0431 44.9337 33.92C44.8003 33.7844 44.7322 33.7337 44.6971 33.7115C44.6966 33.7113 44.6961 33.7108 44.6953 33.7103C44.6802 33.6992 44.5916 33.6343 44.1092 33.6343C43.2388 33.6343 42.403 33.5538 41.6457 33.481L41.6147 33.478C40.9431 33.4134 40.3303 33.3552 39.7193 33.3397C39.7002 33.3455 39.6686 33.3566 39.6235 33.3767C39.5049 33.4296 39.3524 33.5186 39.1757 33.6459ZM39.843 30.3219C40.5587 30.3424 41.2444 30.4084 41.8751 30.4691L41.9028 30.4717C42.69 30.5475 43.3946 30.6142 44.1092 30.6142C44.9044 30.6142 45.6218 30.7258 46.3036 31.1562C46.8155 31.4791 47.2407 31.9583 47.5983 32.3614C47.6385 32.4066 47.6778 32.4508 47.7162 32.4938C48.3142 33.1622 48.5136 33.9995 48.6103 34.5588C48.6614 34.8549 48.6943 35.1482 48.7208 35.3832L48.7218 35.3915C48.7506 35.6484 48.7711 35.8251 48.7974 35.9702C48.8077 36.027 48.8429 36.1435 48.9355 36.3826C48.9488 36.417 48.9643 36.4564 48.9814 36.4997C49.0551 36.6864 49.1566 36.944 49.2272 37.1738C49.2974 37.4023 49.3564 37.6059 49.4112 37.7949C49.5237 38.183 49.6184 38.5098 49.7558 38.8661C50.2952 40.265 50.4534 41.656 50.4534 43.0201C50.4534 43.2063 50.464 43.4132 50.4778 43.68L50.4798 43.7178C50.4935 43.9858 50.5094 44.3058 50.5069 44.6311C50.502 45.249 50.4356 46.1129 49.9841 46.891C49.9611 46.9307 49.9313 46.9837 49.8966 47.0455C49.7917 47.2323 49.6422 47.4989 49.4991 47.7164C49.289 48.036 48.98 48.439 48.5231 48.7575C48.1456 49.0205 47.7131 49.2436 47.3876 49.4114C47.3443 49.4337 47.3027 49.4552 47.2635 49.4756C46.8738 49.6782 46.6424 49.8123 46.4903 49.9393C46.2094 50.1739 45.8941 50.313 45.6869 50.3942C45.4584 50.4838 45.2203 50.5553 45.0207 50.6114C44.8344 50.6638 44.689 50.7025 44.5724 50.7337C44.3802 50.7849 44.2662 50.8152 44.1771 50.8513C43.2915 51.21 42.419 51.439 41.4975 51.5758C41.3852 51.5924 41.2685 51.6103 41.1479 51.6288C39.8372 51.8297 38.0626 52.1018 36.3992 51.6573C36.3351 51.6401 36.2684 51.6228 36.1995 51.6049C35.6385 51.4586 34.9336 51.2747 34.3509 50.9006C33.57 50.3993 33.1125 49.667 32.7731 48.7467C32.0012 46.6541 32.0396 44.3361 32.0715 42.4231C32.0774 42.0612 32.0832 41.7139 32.0832 41.3853C32.0832 41.2886 32.0829 41.1898 32.0826 41.0892C32.0798 40.2519 32.0767 39.2856 32.2567 38.2937C32.3476 37.7925 32.5164 37.1071 32.792 36.4544C33.0266 35.8986 33.4429 35.109 34.1732 34.6147C34.1903 34.5873 34.2143 34.5475 34.2497 34.488C34.2528 34.4828 34.256 34.4775 34.2592 34.472C34.3212 34.3676 34.4259 34.1913 34.554 34.02C34.6939 33.8332 34.9 33.5984 35.1948 33.4008C35.1947 33.4009 35.1947 33.4009 35.1947 33.4009C35.1946 33.4006 35.2192 33.3824 35.2702 33.3326C35.3276 33.2764 35.3965 33.2022 35.4786 33.1077C35.5607 33.0132 35.6436 32.913 35.7353 32.802C35.7396 32.7968 35.7439 32.7916 35.7482 32.7863C35.8313 32.6857 35.9267 32.5701 36.0176 32.4659C36.3412 32.0954 36.8451 31.6052 37.4159 31.1939C37.7251 30.9712 38.1592 30.6929 38.6641 30.5101C38.8828 30.3862 39.1356 30.3154 39.4047 30.3154C39.4748 30.3154 39.5447 30.316 39.6143 30.3169C39.6437 30.316 39.6733 30.3154 39.7029 30.3154C39.7502 30.3154 39.7969 30.3177 39.843 30.3219ZM34.1351 34.6725C34.1337 34.6745 34.1339 34.6739 34.136 34.6713C34.1356 34.6718 34.1354 34.6722 34.1351 34.6725ZM44.6538 47.5534C44.6539 47.5534 44.653 47.554 44.6512 47.5548C44.6528 47.554 44.6538 47.5534 44.6538 47.5534ZM36.9698 35.8264C36.9698 35.8264 36.9694 35.8271 36.9683 35.8283C36.9694 35.8271 36.9698 35.8264 36.9698 35.8264Z" fill="white"/>
<path fill-rule="evenodd" clip-rule="evenodd" d="M42.6977 44.6254C42.6923 44.7045 42.6804 44.7843 42.6619 44.8642C42.4733 45.6765 41.6632 46.1818 40.8525 45.9929C40.0037 45.7951 39.1197 45.4577 38.5335 44.6689C37.9609 43.8987 37.8977 42.99 37.8977 42.2816V39.5929C37.8977 39.1045 38.0293 38.5012 38.514 38.0272C38.9682 37.5831 39.5111 37.4752 39.8306 37.4434C40.1527 37.4114 40.4721 37.4376 40.6613 37.4535C40.7028 37.4569 40.7407 37.4601 40.7755 37.4631C40.9416 37.4773 41.0364 37.4854 41.1276 37.4854C41.7482 37.4854 42.7233 37.5063 43.4714 38.1707C44.208 38.8247 44.3758 39.7921 44.4685 40.4887C44.5159 40.844 44.4995 41.3252 44.4925 41.5299C44.4911 41.5721 44.4901 41.6025 44.4901 41.6177C44.4901 42.3112 44.1793 42.802 44.0533 43.0008L44.0489 43.0077C44.0316 43.0352 44.0199 43.0533 44.0106 43.0679C44.0091 43.0704 44.0075 43.0727 44.0061 43.075C43.8235 43.9905 43.0791 44.4432 42.6977 44.6254Z" fill="white"/>
<path fill-rule="evenodd" clip-rule="evenodd" d="M68.9806 41.5304C68.9683 41.5015 68.9542 41.4712 68.9383 41.439C68.8896 41.3404 68.8278 41.2324 68.737 41.0805C68.7225 41.0563 68.707 41.0305 68.6908 41.0034C68.6135 40.8747 68.5179 40.7155 68.4263 40.5502C68.1623 40.0742 68.179 39.6073 68.2093 39.3554C68.2404 39.0956 68.3127 38.861 68.3547 38.7292C68.3803 38.6488 68.3981 38.5953 68.4122 38.5529C68.4308 38.4969 68.4431 38.4602 68.4583 38.4065C68.4592 38.403 68.4602 38.3996 68.4611 38.3966C68.4734 37.8266 68.6258 37.2847 68.9415 36.8146C69.2653 36.3325 69.6976 36.0201 70.113 35.8205C70.8948 35.4447 71.7744 35.3941 72.3527 35.3941C72.8419 35.3941 73.4035 35.5012 73.8885 35.8775C74.3827 36.261 74.5957 36.767 74.6878 37.1605C74.7745 37.5305 74.7763 37.8928 74.7721 38.1322C74.7692 38.3001 74.765 38.3978 74.7615 38.481C74.7576 38.5712 74.7544 38.6443 74.7544 38.7713C74.7544 38.7709 74.7544 38.7708 74.7544 38.7708C74.7544 38.7708 74.7546 38.7811 74.7558 38.8059C74.7569 38.8326 74.759 38.8671 74.762 38.9114C74.7668 38.9813 74.7728 39.0592 74.7799 39.1517C74.7821 39.1804 74.7844 39.2105 74.7869 39.2421C74.8062 39.4971 74.8302 39.8262 74.839 40.1563C74.8474 40.4727 74.8445 40.8634 74.7878 41.2262C74.7596 41.4065 74.7088 41.6446 74.6036 41.8864C74.5046 42.114 74.2909 42.4978 73.8493 42.7561C73.61 42.8958 73.2943 43.0363 72.9394 43.1483C72.9033 43.2155 72.835 43.3299 72.7251 43.4504C72.6139 43.5721 72.319 43.855 71.8279 43.926C71.2594 44.0083 70.8224 43.7576 70.586 43.5376C70.5127 43.4693 70.4529 43.3999 70.4046 43.3352C69.6625 43.2572 69.0756 42.6375 69.057 41.8702C69.0561 41.833 69.0534 41.7977 69.0484 41.763C69.0222 41.6871 68.9996 41.6094 68.9806 41.5304ZM68.4688 38.365C68.4688 38.365 68.4686 38.3663 68.4681 38.369C68.4685 38.3664 68.4688 38.365 68.4688 38.365Z" fill="white"/>
<path fill-rule="evenodd" clip-rule="evenodd" d="M51.6372 104.678C51.3662 104.417 50.9981 104.257 50.5926 104.257C49.7602 104.257 49.0854 104.933 49.0854 105.767C49.0854 106.338 49.1304 107.31 49.2521 108.268C49.3131 108.748 49.3968 109.252 49.5124 109.715C49.6183 110.138 49.7806 110.652 50.0545 111.081C50.0592 111.094 50.0769 111.142 50.1071 111.252C50.1119 111.269 50.1185 111.293 50.1261 111.322C50.1462 111.395 50.1738 111.498 50.1978 111.58C50.2359 111.709 50.29 111.877 50.3684 112.054C50.5046 112.362 50.6858 112.681 50.8199 112.917C50.8518 112.973 50.8811 113.025 50.9064 113.07C51.0389 113.309 51.119 113.473 51.166 113.603C51.1653 113.616 51.1646 113.631 51.1635 113.649C51.1632 113.656 51.1627 113.663 51.1622 113.671C51.1583 113.738 51.1513 113.857 51.1517 113.976C51.1522 114.121 51.1621 114.314 51.2103 114.532C51.2844 114.865 51.4102 115.163 51.4873 115.343C51.5 115.373 51.5117 115.4 51.5225 115.425C51.5931 115.59 51.6251 115.664 51.648 115.739C51.6731 115.82 51.6857 115.879 51.7098 115.992C51.7193 116.036 51.7305 116.089 51.745 116.155C51.792 116.368 51.8625 116.654 52.0083 116.983C52.2727 117.58 52.6088 117.99 52.943 118.32C53.082 118.458 53.2267 118.586 53.3435 118.691C53.3548 118.701 53.366 118.711 53.3767 118.721C53.5077 118.837 53.618 118.938 53.7279 119.048C54.0125 119.333 54.2955 119.512 54.5171 119.637C54.6395 119.706 54.7124 119.745 54.7691 119.775C54.839 119.811 54.8844 119.835 54.9679 119.888C55.0767 119.957 55.3455 120.123 55.6899 120.187C55.8713 120.219 56.2594 120.259 56.6802 120.05C57.1681 119.807 57.409 119.38 57.4954 119.031C57.5694 118.732 57.5382 118.482 57.5185 118.363C57.4956 118.227 57.4601 118.114 57.4332 118.037C57.3796 117.886 57.3125 117.749 57.2619 117.652C57.0986 117.339 56.7272 116.775 56.7625 116.833C56.7006 116.731 56.659 116.623 56.5714 116.363C56.5676 116.351 56.5635 116.339 56.5593 116.327C56.4802 116.09 56.3503 115.704 56.1104 115.313C55.8126 114.828 55.5056 114.109 55.3612 113.531C55.2753 113.187 55.2241 112.805 55.2241 112.487C55.2241 111.972 55.138 111.527 55.0604 111.176C55.0352 111.062 55.0124 110.964 54.9917 110.874C54.942 110.66 54.9048 110.499 54.8765 110.308C54.812 109.869 54.7093 109.319 54.607 108.772C54.5508 108.471 54.4946 108.171 54.4451 107.89C54.2927 107.027 54.1888 106.284 54.1888 105.767C54.1888 104.933 53.514 104.257 52.6816 104.257C52.2761 104.257 51.908 104.417 51.6372 104.678ZM56.574 117.333C56.5717 117.331 56.5694 117.33 56.5671 117.329C56.5928 117.343 56.5965 117.347 56.574 117.333Z" fill="white"/>
<path fill-rule="evenodd" clip-rule="evenodd" d="M20.1232 35.8425C20.9143 36.1019 21.3457 36.9547 21.0868 37.7473C20.9137 38.2771 20.6091 38.7393 20.3328 39.1014C20.049 39.4733 19.721 39.8334 19.4326 40.1449C19.379 40.2027 19.3269 40.2589 19.2761 40.3135C19.037 40.5708 18.8289 40.7948 18.6433 41.0149C18.414 41.2867 18.2977 41.4629 18.2485 41.566C18.0074 42.0707 17.5348 42.6122 17.2272 42.955C17.0113 43.1958 16.8461 43.3718 16.7077 43.5195C16.5736 43.6624 16.4646 43.7786 16.3587 43.9012C16.199 44.0857 16.0009 44.2941 15.8343 44.4694C15.768 44.5392 15.7067 44.6038 15.6547 44.6594C15.4348 44.8952 15.2934 45.0638 15.2078 45.1957C14.5153 46.2631 13.9087 47.3899 13.2724 48.5966C12.4716 50.1153 11.5482 51.5236 10.445 52.8438C9.16531 54.3753 8.22072 55.974 7.16898 57.7542C6.95919 58.1093 6.74513 58.4716 6.52329 58.842C6.08284 59.5775 5.78864 60.404 5.48959 61.3745C5.43575 61.5493 5.38109 61.7313 5.32481 61.9187C5.08379 62.7214 4.81293 63.6234 4.44735 64.4827C3.86639 65.8483 3.69779 67.2586 3.50165 68.8995C3.43976 69.4171 3.37513 69.9578 3.29394 70.5272C2.9967 72.6119 2.91659 74.6927 3.15032 76.7482C3.24037 77.5403 3.595 78.3609 4.12665 79.3486C4.24654 79.5713 4.38023 79.81 4.52034 80.0601C4.9462 80.8206 5.43136 81.687 5.76889 82.5324C5.86801 82.7807 5.91748 83.0106 5.9468 83.1888C5.96763 83.3154 5.98406 83.4596 5.99392 83.5462C5.99632 83.5672 5.99833 83.5849 5.99991 83.598C6.00019 83.6003 6.00047 83.6027 6.00075 83.6048C6.01958 83.6193 6.0422 83.6365 6.06989 83.658C6.16272 83.7296 6.32858 83.8597 6.48702 84.0318C6.65356 84.2128 6.84723 84.4771 6.96306 84.8357C6.96381 84.8381 6.96455 84.8404 6.96528 84.8427C7.35884 85.0443 7.76574 85.2016 8.28003 85.4004C8.45604 85.4683 8.64464 85.5412 8.84959 85.6223C9.56464 85.9056 10.3552 85.8666 11.3495 85.5885C11.8475 85.4491 12.3559 85.2619 12.9073 85.0509C12.9846 85.0213 13.0633 84.991 13.1432 84.9604C13.6104 84.7807 14.1162 84.5861 14.6094 84.4273C14.6531 84.4132 14.734 84.3735 14.996 84.1533C15.0153 84.1371 15.0374 84.118 15.0623 84.0967C15.2769 83.9126 15.6915 83.5567 16.1895 83.3456C16.6543 83.1487 16.8105 83.0266 16.8797 82.934C17.1974 82.5096 17.5774 82.1174 17.9032 81.7906C17.9887 81.7048 18.0701 81.6239 18.1479 81.5465C18.3909 81.3048 18.5983 81.0985 18.7873 80.8881C19.0842 80.5576 19.5028 80.1899 19.9411 79.8883C20.2972 79.6432 20.8525 79.3099 21.4691 79.1956C21.4991 79.1728 21.5439 79.1379 21.6172 79.081C21.6261 79.0741 21.6359 79.0663 21.6468 79.0577C21.8632 78.8874 22.4657 78.4132 23.3035 78.4132C24.1359 78.4132 24.8106 79.0893 24.8106 79.9233C24.8106 80.6795 24.2557 81.3059 23.5316 81.416C23.514 81.4292 23.4923 81.4458 23.4656 81.4666C23.4565 81.4737 23.4458 81.482 23.4338 81.4914C23.34 81.5651 23.1647 81.7027 22.9785 81.8166C22.7578 81.9516 22.4342 82.1116 22.0221 82.1657C22.0107 82.1699 21.9909 82.1777 21.9623 82.1911C21.8814 82.2292 21.7735 82.2912 21.6476 82.3778C21.3881 82.5563 21.1526 82.7696 21.0279 82.9084C20.7761 83.1886 20.4858 83.4772 20.2313 83.7302C20.163 83.7979 20.0975 83.863 20.0359 83.9248C19.7168 84.2449 19.4701 84.5071 19.2911 84.7461C18.7035 85.5312 17.8796 85.9085 17.3649 86.1267C17.3646 86.1268 17.3644 86.1269 17.364 86.127L20.1232 35.8425ZM17.3649 86.1267C17.3649 86.1267 17.3355 86.1404 17.2635 86.1946C17.1935 86.2472 17.1294 86.3014 17.0294 86.3859C17.0008 86.4101 16.9691 86.4369 16.9335 86.4668C16.6663 86.6913 16.1907 87.0903 15.5318 87.3025C15.1252 87.4334 14.7086 87.5935 14.2374 87.7746C14.1542 87.8065 14.0694 87.8391 13.9828 87.8722C13.4258 88.0853 12.8042 88.3171 12.1602 88.4972C10.8705 88.858 9.32926 89.0599 7.74135 88.4309C7.59567 88.3732 7.44535 88.3156 7.29123 88.2565C6.55439 87.9738 5.73079 87.6578 4.91253 87.1454C4.62864 86.9676 4.40492 86.7213 4.25798 86.4287C4.16757 86.2487 4.12044 86.0788 4.09459 85.9465C4.03954 85.9035 3.97663 85.8533 3.92064 85.8051C3.78777 85.6906 3.5968 85.5093 3.43306 85.2541C3.1019 84.738 3.03768 84.2108 3.00752 83.9613C2.9755 83.6966 2.96893 83.6539 2.96905 83.6512C2.71087 83.0051 2.3717 82.3992 1.97894 81.6974C1.81878 81.4114 1.64972 81.1093 1.4736 80.7821C0.912233 79.7392 0.314566 78.4899 0.155401 77.0901C-0.112964 74.7299 -0.0159452 72.3857 0.309948 70.1001C0.367981 69.6931 0.41898 69.2588 0.472202 68.8055C0.673676 67.0897 0.907005 65.1025 1.67444 63.2985C1.96822 62.6079 2.17926 61.9072 2.41632 61.1199C2.47826 60.9142 2.54199 60.7026 2.60943 60.4837C2.92038 59.4745 3.30045 58.3538 3.93856 57.2883C4.14029 56.9513 4.34097 56.6111 4.54291 56.2689C5.59534 54.4848 6.68226 52.6422 8.13376 50.9052C9.08796 49.7633 9.89579 48.5351 10.6072 47.1859C11.2434 45.9794 11.906 44.7437 12.6805 43.5498C12.9192 43.1818 13.2155 42.8514 13.4522 42.5976C13.5512 42.4916 13.6375 42.4009 13.7158 42.3186C13.8543 42.1731 13.9676 42.054 14.0807 41.9233C14.2033 41.7815 14.3629 41.6104 14.5113 41.4511L14.5284 41.4327C14.6801 41.27 14.8353 41.1036 14.9852 40.9363C15.1418 40.7618 15.2781 40.6025 15.3845 40.4658C15.4792 40.3438 15.5188 40.2794 15.5279 40.2645C15.5302 40.2608 15.5306 40.2602 15.5295 40.2623C15.7469 39.8074 16.0615 39.3968 16.3409 39.0656C16.5781 38.7844 16.8462 38.496 17.0859 38.2384C17.1328 38.1879 17.1787 38.1385 17.2229 38.0907C17.5113 37.7793 17.7506 37.5129 17.938 37.2673C18.1329 37.0119 18.2033 36.8654 18.222 36.8079C18.4809 36.0153 19.3322 35.5831 20.1232 35.8425L17.3649 86.1267ZM4.05272 85.5677C4.05284 85.5693 4.05294 85.5706 4.05303 85.5719C4.05254 85.5666 4.05252 85.565 4.05272 85.5677ZM5.87957 83.5095C5.87957 83.5094 5.88071 83.5104 5.88285 83.5125C5.88062 83.5106 5.87958 83.5095 5.87957 83.5095Z" fill="white"/>
<path fill-rule="evenodd" clip-rule="evenodd" d="M90.1143 29.0816C90.8616 28.7144 91.7646 29.0236 92.1312 29.7723C92.6633 30.8592 93.531 32.1099 94.4969 33.49C94.5218 33.5254 94.5468 33.5611 94.5718 33.5968C95.476 34.8886 96.4623 36.2972 97.1073 37.5898C97.3103 37.9965 97.4897 38.3749 97.6652 38.7448C97.9136 39.2688 98.154 39.7759 98.4421 40.3226C98.9047 41.2007 99.3781 41.9493 99.9188 42.5218C100.872 43.5315 101.527 44.7272 102.07 45.8027C102.202 46.0627 102.326 46.3133 102.445 46.5555C102.849 47.3721 103.205 48.0936 103.644 48.7625C103.959 49.2415 104.233 49.7561 104.468 50.1984C104.507 50.2716 104.545 50.3428 104.582 50.4116C104.859 50.9281 105.097 51.3459 105.369 51.7007C106.124 52.6841 106.798 54.0365 107.181 55.1498C107.193 55.1854 107.237 55.2705 107.491 55.5636C107.509 55.5851 107.53 55.6087 107.553 55.6345C107.762 55.8725 108.127 56.2881 108.367 56.7913L108.382 56.8224C108.898 57.9041 109.459 59.078 109.491 60.6729C109.507 61.4238 109.512 62.1674 109.518 62.9035C109.534 65.1529 109.55 67.3309 109.849 69.4279C110.177 71.7229 110.237 73.9925 110.237 76.2221C110.237 76.9819 110.2 77.6791 109.988 78.3815C109.774 79.0957 109.413 79.7042 108.941 80.3592C108.018 81.6403 106.663 82.8027 105.109 83.4948C103.545 84.1912 101.674 84.4521 99.8492 83.7131C98.7416 83.2645 97.653 82.7185 96.6495 82.2152C96.6066 82.1937 96.5638 82.1722 96.5211 82.1509C96.498 82.1488 96.4666 82.1466 96.4252 82.1441C96.4151 82.1435 96.4037 82.1429 96.3909 82.1423C96.2025 82.1325 95.7342 82.1082 95.2648 81.8862C95.1377 81.826 95.0107 81.7612 94.9063 81.7079L94.8655 81.6871C94.7451 81.6257 94.6501 81.5781 94.5607 81.5376C94.3783 81.4551 94.2939 81.4375 94.2592 81.434C93.202 81.3281 91.8579 81.6776 91.1147 82.2869C90.4815 82.8059 89.688 82.8148 89.383 82.8148C89.1769 82.8149 88.9773 82.8024 88.8335 82.7932C88.6658 82.7825 88.5857 82.7775 88.5286 82.7775C86.8864 82.7775 85.9029 81.6973 85.3339 81.0104C85.1916 80.8387 85.0806 80.6986 84.9811 80.5731C84.8363 80.3905 84.7161 80.2388 84.5598 80.0654C84.333 79.8138 84.1745 79.6917 84.053 79.6307C83.3084 79.2578 83.0067 78.3508 83.3789 77.6048C83.7511 76.8589 84.6565 76.5565 85.401 76.9295C86.0038 77.2315 86.4571 77.6644 86.7966 78.041C87.0052 78.2724 87.2412 78.5679 87.4312 78.806C87.5169 78.9134 87.5932 79.0089 87.6535 79.0817C88.1714 79.707 88.3641 79.7575 88.5286 79.7575C88.6885 79.7575 88.864 79.7688 88.9885 79.7769C89.001 79.7777 89.0131 79.7784 89.0244 79.7792C89.1734 79.7887 89.2844 79.7948 89.3824 79.7947C89.39 79.7947 89.3972 79.7947 89.404 79.7946C90.864 78.7052 92.9275 78.2655 94.5592 78.429C95.062 78.4793 95.489 78.6437 95.8027 78.7859C95.9612 78.8577 96.1105 78.9333 96.2319 78.9951L96.2748 79.017C96.3531 79.0569 96.4185 79.0903 96.48 79.1205C96.5051 79.1227 96.5437 79.1259 96.5994 79.1291C96.6093 79.1296 96.6207 79.1303 96.6334 79.1309C96.8192 79.1404 97.301 79.1649 97.7751 79.4024C97.8416 79.4357 97.9079 79.469 97.974 79.5022C99.0018 80.0174 99.9879 80.5117 100.979 80.9132C101.858 81.2692 102.86 81.1915 103.884 80.7352C104.917 80.2749 105.863 79.4708 106.497 78.591C106.881 78.0588 107.026 77.7639 107.102 77.5099C107.182 77.244 107.223 76.9084 107.223 76.2221C107.223 74.0359 107.162 71.9358 106.865 69.855C106.535 67.5365 106.517 65.0695 106.501 62.7753C106.496 62.0762 106.491 61.3931 106.478 60.7352C106.459 59.8514 106.179 59.2082 105.647 58.0943C105.597 57.9898 105.51 57.885 105.214 57.5431L105.205 57.5326C104.97 57.2618 104.554 56.7815 104.331 56.1343C104.033 55.268 103.5 54.2195 102.98 53.5421C102.544 52.9747 102.207 52.3645 101.926 51.8404C101.882 51.7578 101.839 51.6777 101.798 51.5997C101.559 51.1519 101.358 50.7756 101.126 50.4224C100.575 49.5828 100.11 48.64 99.6945 47.7975C99.5869 47.5791 99.4825 47.3675 99.3808 47.1661C98.8558 46.1264 98.3622 45.268 97.7289 44.5972C96.9129 43.7328 96.2893 42.7061 95.7763 41.7323C95.4757 41.1617 95.1687 40.5169 94.8881 39.928C94.7168 39.568 94.5553 39.229 94.4112 38.9404C93.87 37.8558 92.997 36.6069 92.029 35.2239L92.0162 35.2057C91.0932 33.887 90.0787 32.4376 89.425 31.1024C89.0584 30.3537 89.3669 29.449 90.1143 29.0816Z" fill="white"/>
<path fill-rule="evenodd" clip-rule="evenodd" d="M64.0039 101.313C64.8363 101.313 65.5111 101.989 65.5111 102.823V110.03C65.5111 110.692 65.577 111.369 65.6528 112.138L65.6552 112.162C65.728 112.899 65.8093 113.723 65.8093 114.561C65.8093 115.186 65.7691 115.798 65.7326 116.355L65.7314 116.373C65.6937 116.949 65.6602 117.467 65.6602 117.98C65.6602 119.076 65.573 120.424 65.2878 121.739C65.0078 123.03 64.5064 124.434 63.5774 125.508C62.9185 126.27 62.1892 127.108 60.864 127.632C60.4656 127.791 60.0737 127.863 59.8207 127.911L59.8123 127.912C59.5168 127.967 59.3798 127.993 59.259 128.036C59.1573 128.071 59.0368 128.117 58.902 128.167C58.3718 128.366 57.6207 128.647 56.9255 128.757C55.5489 128.975 54.1252 128.957 52.8608 128.942C52.5443 128.937 52.2379 128.933 51.9445 128.933C51.146 128.933 50.3967 128.63 49.85 128.352C49.2739 128.057 48.7473 127.698 48.362 127.42C47.8288 127.034 47.3363 126.729 46.8034 126.398C46.4587 126.185 46.0971 125.961 45.6966 125.697C44.7549 125.078 43.7657 124.338 42.9147 123.289C41.9987 122.16 41.4661 120.886 41.0252 119.802C40.9986 119.736 40.9724 119.671 40.9464 119.608C40.5185 118.552 40.1644 117.679 39.624 116.898C38.7535 115.641 38.3266 114.37 38.1936 112.905C38.0637 111.472 37.8532 109.984 37.5913 108.561C37.502 108.076 37.3915 107.614 37.2709 107.109C37.2171 106.884 37.1613 106.651 37.1046 106.404C36.9297 105.641 36.7596 104.798 36.7075 103.911C36.6586 103.079 37.2926 102.364 38.1235 102.315C38.9545 102.266 39.6677 102.901 39.7166 103.734C39.7535 104.363 39.8772 105.008 40.0423 105.727C40.0856 105.916 40.1334 106.116 40.1828 106.323C40.3113 106.86 40.4511 107.446 40.5555 108.014C40.8326 109.518 41.0565 111.099 41.1955 112.631C41.2847 113.614 41.5477 114.379 42.1009 115.178C42.8405 116.246 43.314 117.418 43.715 118.41C43.7495 118.496 43.7834 118.58 43.817 118.663C44.264 119.763 44.654 120.644 45.2541 121.384C45.8204 122.083 46.5144 122.623 47.3499 123.172C47.6124 123.345 47.9165 123.534 48.24 123.735C48.8499 124.115 49.5285 124.538 50.1268 124.971C50.4647 125.215 50.8454 125.47 51.2171 125.66C51.6182 125.865 51.8572 125.913 51.9445 125.913C52.3209 125.913 52.6826 125.917 53.0331 125.922C54.2639 125.936 55.356 125.949 56.4554 125.774C56.8218 125.716 57.1654 125.588 57.6319 125.415C57.8194 125.345 58.0266 125.268 58.2632 125.185C58.6171 125.061 58.9736 124.995 59.2057 124.953C59.2258 124.949 59.2451 124.946 59.2633 124.942C59.5339 124.892 59.6595 124.863 59.7558 124.824C60.3378 124.594 60.6541 124.276 61.2996 123.53C61.7554 123.003 62.1113 122.163 62.3423 121.098C62.5683 120.056 62.6459 118.935 62.6459 117.98C62.6459 117.36 62.6857 116.752 62.7221 116.198L62.7236 116.174C62.7614 115.598 62.795 115.079 62.795 114.561C62.795 113.887 62.7289 113.202 62.6532 112.435L62.6492 112.395C62.577 111.664 62.4968 110.851 62.4968 110.03V102.823C62.4968 101.989 63.1716 101.313 64.0039 101.313Z" fill="white"/>
<path fill-rule="evenodd" clip-rule="evenodd" d="M61.7264 68.8484C61.4403 68.8662 61.1143 68.886 60.8069 68.886C59.6013 68.886 58.6448 69.019 57.6734 69.4361C57.2672 69.6106 56.8716 69.7766 56.4836 69.9395C55.4069 70.3915 54.3887 70.819 53.364 71.3324C53.0355 71.497 52.7151 71.7308 52.309 72.0533C52.2499 72.1001 52.1878 72.15 52.123 72.2021C51.78 72.4773 51.3605 72.8138 50.9149 73.0979C50.2089 73.5481 49.7083 73.982 49.3389 74.537C49.134 74.8449 48.8726 75.0581 48.6019 75.1974C48.5538 75.2222 48.506 75.2441 48.4601 75.2634C48.3295 75.4879 48.1574 75.7704 47.9825 75.9957C47.6865 76.377 47.5358 76.635 47.4427 76.9499C47.2471 77.6113 47.2646 78.035 47.294 78.746C47.3072 79.063 47.3227 79.4372 47.3227 79.915C47.3227 80.2851 47.4276 80.6196 47.6521 81.0729C47.7362 81.2425 47.8202 81.3977 47.9187 81.5792C47.9644 81.6634 48.0131 81.7533 48.0664 81.853C48.2219 82.1438 48.3967 82.4846 48.5483 82.8644C48.5484 82.8645 48.5487 82.8653 48.5493 82.8668C48.55 82.8684 48.5511 82.8708 48.5525 82.8738C48.5553 82.8802 48.5594 82.8888 48.5651 82.8999C48.5765 82.9225 48.5925 82.9521 48.614 82.9886C48.6575 83.0624 48.7162 83.1529 48.7907 83.2573C48.9403 83.4669 49.1324 83.7033 49.344 83.9346C49.5559 84.1664 49.7714 84.3755 49.9637 84.5373C50.0593 84.6178 50.141 84.6796 50.2066 84.7241C50.2675 84.7654 50.2994 84.7815 50.3036 84.7837C50.3041 84.7839 50.3042 84.784 50.3038 84.7838C50.7784 84.9951 51.2589 85.2298 51.713 85.4514C51.8306 85.5089 51.9465 85.5654 52.06 85.6205C52.6285 85.8963 53.1604 86.1458 53.6835 86.3496C53.8879 86.4293 54.0876 86.5193 54.2512 86.5933L54.2709 86.6022C54.4372 86.6775 54.5719 86.7383 54.7044 86.792C54.9908 86.9081 55.122 86.9274 55.1748 86.9274C56.1093 86.9274 56.9786 86.896 57.8592 86.789C58.1163 86.7578 58.3662 86.7934 58.5914 86.8822C58.6158 86.8558 58.6413 86.8266 58.6679 86.7945C58.8286 86.6003 58.9485 86.4094 59.1153 86.1436C59.1951 86.0165 59.2855 85.8723 59.3964 85.7024C59.4736 85.5841 59.5137 85.44 59.6309 84.9136L59.6331 84.9036C59.7316 84.4605 59.8977 83.7134 60.4289 83.0292C60.5345 82.8932 60.6314 82.6939 60.7939 82.2909C60.8072 82.2582 60.8211 82.2235 60.8357 82.1869C60.9723 81.8447 61.1715 81.3461 61.4638 80.8945C61.7424 80.4637 61.9914 80.1032 62.2255 79.7643C62.5538 79.2892 62.8527 78.8565 63.163 78.3319C63.3913 77.9457 63.6462 77.5811 63.862 77.2724C63.9035 77.2131 63.9436 77.1557 63.9817 77.1008C64.2336 76.7377 64.4335 76.4329 64.594 76.1111C64.9136 75.4709 65.1181 74.7739 65.3485 73.9195C65.7077 72.5881 65.7177 71.6729 65.2447 70.5246C65.1657 70.3332 65.045 70.159 64.7995 69.8382C64.7858 69.8204 64.7716 69.8019 64.757 69.7828C64.6249 69.6107 64.4528 69.3866 64.2847 69.1183C64.2538 69.1098 64.2229 69.1015 64.1912 69.093C64.1484 69.0816 64.1041 69.0696 64.0558 69.0564C63.9978 69.0406 63.932 69.0224 63.8706 69.0037C63.8394 68.9943 63.8026 68.9828 63.7642 68.9696C63.7293 68.9576 63.6732 68.9377 63.6101 68.9102C63.4556 68.8429 63.1405 68.7918 62.5684 68.8054C62.3183 68.8112 62.0639 68.8271 61.7847 68.8447C61.7653 68.8459 61.7459 68.8471 61.7264 68.8484ZM57.7883 89.8348C56.8975 89.9227 56.0356 89.9474 55.1748 89.9474C54.5354 89.9474 53.9715 89.7528 53.5741 89.5916C53.3842 89.5147 53.1987 89.4308 53.0458 89.3617C53.0342 89.3564 53.0228 89.3512 53.0116 89.3461C52.8406 89.2689 52.7104 89.2109 52.591 89.1644C51.9485 88.914 51.3254 88.6196 50.7464 88.3387C50.6171 88.2759 50.4907 88.2144 50.3666 88.1537C49.9189 87.9352 49.5008 87.7311 49.0796 87.5436C48.3673 87.2264 47.6333 86.5345 47.1217 85.975C46.6001 85.4048 46.0129 84.6455 45.7496 83.986C45.6609 83.7637 45.5487 83.5399 45.4091 83.2786C45.3754 83.2155 45.338 83.1465 45.2983 83.0733C45.1886 82.8711 45.0623 82.638 44.9518 82.4151C44.6297 81.7645 44.3084 80.946 44.3084 79.915C44.3084 79.7016 44.2984 79.4697 44.2876 79.2213C44.2499 78.3482 44.2035 77.2724 44.5526 76.0919C44.7974 75.2643 45.1988 74.6624 45.6031 74.1416C45.6988 74.0183 45.745 73.9357 45.8243 73.7936C45.8828 73.6891 45.9592 73.5524 46.0866 73.3435C46.2904 73.0095 46.564 72.783 46.8451 72.6394C46.9163 72.6031 46.9873 72.5729 47.0527 72.5482C47.7023 71.6823 48.49 71.0644 49.2967 70.5501C49.5921 70.3617 49.8616 70.146 50.2031 69.8728C50.2773 69.8135 50.3548 69.7515 50.4368 69.6863C50.8615 69.3492 51.3886 68.9455 52.016 68.6312C53.1387 68.0687 54.2912 67.5849 55.3947 67.1218C55.765 66.9663 56.1298 66.8133 56.4861 66.6602C57.9603 66.0272 59.3598 65.866 60.8069 65.866C61.0057 65.866 61.2397 65.8528 61.5386 65.8341C61.561 65.8327 61.5837 65.8313 61.6067 65.8298C61.8747 65.813 62.1856 65.7935 62.4972 65.786C63.1213 65.7713 63.9752 65.7934 64.7545 66.1162C64.7696 66.1206 64.7993 66.1292 64.8483 66.1426C64.8749 66.1498 64.9078 66.1588 64.9447 66.1687C65.0301 66.1917 65.1363 66.2203 65.2302 66.2468C65.365 66.2849 65.5445 66.338 65.708 66.4008C65.7859 66.4307 65.9087 66.4811 66.0367 66.5545C66.1009 66.5914 66.2007 66.6534 66.3072 66.745C66.4004 66.8252 66.5916 67.006 66.7229 67.3021C66.8069 67.4914 66.9302 67.6588 67.192 68.0011L67.2028 68.0152C67.4369 68.3212 67.7857 68.7772 68.0309 69.3725C68.8218 71.2922 68.7411 72.9179 68.2584 74.7075C68.0294 75.5564 67.7597 76.521 67.2901 77.4617C67.0272 77.9886 66.7222 78.4418 66.4569 78.8243C66.4071 78.896 66.3592 78.9647 66.313 79.0309C66.0989 79.3378 65.9209 79.5927 65.7561 79.8715C65.415 80.4484 64.9874 81.072 64.5995 81.6377C64.3762 81.9632 64.1661 82.2697 63.9932 82.5371C63.8677 82.731 63.7749 82.9609 63.608 83.3748L63.5884 83.4231C63.4348 83.8039 63.2037 84.3741 62.8083 84.8833C62.7309 84.9831 62.6729 85.1209 62.5729 85.5706C62.566 85.6016 62.5588 85.6352 62.551 85.6713C62.4669 86.0618 62.3206 86.7401 61.9192 87.3551C61.8751 87.4228 61.8232 87.5055 61.7651 87.5983C61.5632 87.9201 61.2851 88.3636 60.9881 88.7224C60.5563 89.2441 59.9464 89.7824 59.0509 90.0388C58.6033 90.1668 58.1452 90.0782 57.7883 89.8348ZM47.3735 72.4502C47.3736 72.4502 47.3713 72.4509 47.3661 72.4524C47.3708 72.4509 47.3734 72.4502 47.3735 72.4502ZM48.0569 75.3937C48.0567 75.3937 48.0591 75.393 48.0645 75.3915C48.0598 75.393 48.0571 75.3937 48.0569 75.3937Z" fill="white"/>
<path fill-rule="evenodd" clip-rule="evenodd" d="M56.7581 3.14712C56.2025 3.06713 55.7286 3.0132 55.2548 3.02199C55.0173 3.02639 54.7658 3.0541 54.4424 3.09446C54.4121 3.09826 54.3809 3.1022 54.3488 3.10623C54.0639 3.14214 53.717 3.18587 53.3645 3.20446C53.3155 3.20703 53.1839 3.23626 52.8216 3.41079C52.7796 3.43106 52.7302 3.45565 52.6747 3.48327C52.3846 3.62767 51.9281 3.8549 51.4861 3.97946C51.0319 4.10746 50.491 4.23192 49.9936 4.34638C49.7026 4.41332 49.4264 4.47686 49.1912 4.53569C48.4627 4.71788 47.8654 4.90912 47.3867 5.16669C46.6502 5.563 45.8197 5.92848 45.0516 6.26655C44.728 6.40896 44.4155 6.54652 44.1257 6.67945C43.079 7.15962 42.191 7.63431 41.4871 8.23306C40.6222 8.96877 39.8098 9.79268 38.953 10.6732C38.8931 10.7347 38.833 10.7965 38.7726 10.8586C37.9842 11.6695 37.1515 12.526 36.2603 13.3196C35.6354 13.8762 34.8213 14.2853 34.2381 14.5786C34.1176 14.6391 34.0069 14.6948 33.9098 14.7457C33.212 15.1118 32.9006 15.3616 32.7458 15.6329C32.4412 16.167 32.027 16.4497 31.8148 16.5915C31.7149 16.6583 31.6642 16.6932 31.6409 16.7091C31.6386 16.7133 31.6359 16.7181 31.633 16.7235C31.6105 16.7651 31.5925 16.8017 31.563 16.8619C31.5499 16.8886 31.5344 16.9201 31.5152 16.959L31.5089 16.9717C31.4158 17.1597 31.2103 17.5751 30.8364 17.9157C30.4996 18.2224 30.1883 18.6582 30.0366 19.0383C29.1043 21.3734 27.0414 22.8473 25.4573 23.8871C24.3737 24.5985 23.6012 25.537 23.499 26.3048C23.2863 27.9033 22.8289 29.479 22.4084 30.9274C22.3308 31.1948 22.2543 31.4578 22.181 31.7158C21.6935 33.4316 21.3152 34.9957 21.3152 36.5689C21.3152 37.9655 21.2201 39.3472 21.1291 40.6684L21.1276 40.6896C21.0351 42.0345 20.9473 43.3176 20.9473 44.5959C20.9473 44.9498 20.9139 45.3544 20.8827 45.7137C20.8782 45.7662 20.8736 45.8184 20.8691 45.8702C20.8404 46.1972 20.8129 46.5116 20.7967 46.8237C20.7779 47.1852 20.7778 47.4914 20.8018 47.738C20.8256 47.982 20.8654 48.0784 20.8692 48.0874C20.8694 48.0881 20.8695 48.0883 20.8694 48.0881C21.6202 49.4851 21.683 51.0164 21.683 52.1929C21.683 53.7028 22.4603 55.542 23.335 57.1852C23.5967 57.6769 23.9504 58.1476 24.3902 58.7082C24.4309 58.76 24.4725 58.8129 24.5149 58.8667C24.9044 59.3614 25.3598 59.9396 25.7371 60.5648C26.3566 61.5913 26.5 62.7149 26.5253 63.655C26.5381 64.1311 26.5206 64.6015 26.5028 65.0209C26.5002 65.0795 26.4977 65.1371 26.4952 65.1935C26.4794 65.5565 26.4655 65.874 26.4655 66.1787C26.4655 67.7918 26.3621 69.5404 25.7955 71.2432C25.029 73.5469 24.4422 75.8909 24.4422 78.1783C24.4422 79.2413 24.4478 79.946 24.6631 80.7228C24.6981 80.849 24.7275 80.9598 24.7545 81.0619C24.8071 81.2603 24.8511 81.4265 24.9112 81.6106C24.9954 81.8689 25.0687 82.0166 25.127 82.0991C25.466 82.5804 25.5852 83.042 25.6525 83.3081C25.7242 83.5915 25.7335 83.6145 25.756 83.6541C26.1129 84.28 26.2746 85.0071 26.3582 85.6C26.4453 86.2182 26.4655 86.8321 26.4655 87.3111C26.4655 88.8522 26.5593 89.7486 27.0912 91.0652C27.131 91.1638 27.1598 91.2642 27.1779 91.3649C27.316 91.508 27.4592 91.6469 27.6185 91.8014C27.7487 91.9278 27.8898 92.0646 28.0475 92.2226L31.0824 95.2635C31.7379 95.9202 32.3223 96.6387 32.8502 97.2879C32.9565 97.4184 33.0604 97.5462 33.1621 97.6702C33.7941 98.4397 34.3813 99.1113 35.0717 99.68C36.4059 100.779 37.8445 101.608 39.4836 102.331L39.5401 102.356C41.0169 103.007 42.3053 103.575 43.4547 103.575H50.7101C51.0172 103.575 51.3159 103.518 51.7818 103.422L51.8205 103.414C52.2464 103.326 52.8235 103.207 53.4693 103.207C54.0796 103.207 54.6105 103.063 55.3372 102.866C55.5766 102.801 55.837 102.731 56.1285 102.658C56.6146 102.536 57.1153 102.342 57.7235 102.105C57.8808 102.044 58.0452 101.98 58.2184 101.914C58.9871 101.62 59.9311 101.284 60.8948 101.196C62.6808 101.033 64.4695 101.055 66.1718 101.078L66.2303 101.079C67.937 101.102 69.558 101.123 71.1557 100.99C71.2867 100.979 71.4693 100.92 71.8368 100.716C71.8927 100.685 71.9605 100.645 72.0377 100.601C72.3473 100.421 72.8076 100.155 73.2524 99.9865C73.3076 99.9656 73.3721 99.9425 73.4279 99.9225L73.4442 99.9166C73.4776 99.9047 73.511 99.8926 73.545 99.8803C73.5768 99.8688 73.609 99.8569 73.642 99.8446C73.7798 99.7931 73.9098 99.7407 74.0218 99.6879C74.0389 99.6798 74.0548 99.672 74.0698 99.6646C74.2114 99.4004 74.3901 99.2088 74.5255 99.0832C74.7269 98.8964 74.9443 98.7552 75.0784 98.6702C75.1527 98.6233 75.2057 98.5905 75.249 98.5639C75.3104 98.526 75.3518 98.5005 75.4055 98.4638C75.4154 98.457 75.4236 98.4513 75.4301 98.4466C75.7316 98.0921 76.0844 97.8244 76.2935 97.6657C76.316 97.6487 76.3367 97.6329 76.3557 97.6184C76.6156 97.4191 76.6688 97.3576 76.6896 97.3263C77.0653 96.7617 77.5688 96.195 77.9741 95.7388C78.1201 95.5744 78.2534 95.4245 78.3634 95.2941C78.8487 94.7187 79.1441 94.2592 79.2737 93.7539C79.321 93.5699 79.3682 93.386 79.4156 93.2021C79.7623 91.8545 80.1073 90.5129 80.4077 89.1798C80.4538 88.9753 80.4925 88.7711 80.5363 88.5389L80.5438 88.4988C80.5889 88.2598 80.6406 87.9888 80.7061 87.7144C80.8395 87.1553 81.0427 86.5252 81.4405 85.8922C81.6974 85.4834 81.7605 85.2623 81.7605 85.0893V80.3899C81.7605 79.6474 81.8281 78.8715 81.8888 78.1752C81.9076 77.9599 81.9257 77.7523 81.9409 77.5555C82.0097 76.6671 82.0323 75.9033 81.9218 75.1974C81.5986 73.1331 81.662 70.8658 81.7194 68.8165C81.7404 68.0649 81.7605 67.3425 81.7605 66.6702C81.7605 66.5321 81.7594 66.3823 81.7582 66.2233C81.7534 65.5992 81.7475 64.8358 81.8062 64.0985C81.88 63.17 82.0651 62.0889 82.594 61.135C82.8316 60.7067 83.1127 60.2576 83.3689 59.8484C83.4678 59.6904 83.5631 59.5382 83.6506 59.3957C83.9893 58.8437 84.2603 58.3614 84.4417 57.9027C84.6694 57.3269 85.0114 56.8659 85.2387 56.5596L85.2405 56.5572C85.5022 56.2044 85.6347 56.0248 85.7244 55.8328C85.7699 55.7357 85.8041 55.6487 85.8538 55.5224C85.8759 55.4665 85.9009 55.403 85.9313 55.3274C86.0167 55.1154 86.1375 54.8289 86.3146 54.5385C86.4716 54.2808 86.6529 54.0583 86.8027 53.8851C86.8851 53.7897 86.9988 53.664 87.0923 53.5608C87.1425 53.5052 87.1869 53.4562 87.2174 53.4218C87.4491 53.1607 87.5055 53.0573 87.5148 53.0402C87.5164 53.0373 87.5166 53.037 87.5161 53.0388C87.6262 52.6709 87.7273 52.3627 87.8211 52.0765C87.9627 51.6443 88.0878 51.2628 88.2026 50.8028C88.2673 50.5436 88.2987 50.2769 88.3441 49.8925C88.3477 49.8614 88.3515 49.8297 88.3554 49.7971C88.4024 49.3998 88.4676 48.876 88.6359 48.3403C88.7883 47.8551 88.9662 47.3818 89.1271 46.9535C89.1421 46.9136 89.1569 46.8742 89.1716 46.8352C89.3495 46.3606 89.5053 45.9364 89.6281 45.5143C89.6897 45.3026 89.7176 45.0081 89.7125 44.578C89.7102 44.3787 89.7017 44.1763 89.6921 43.9498L89.6905 43.9123C89.6807 43.6807 89.67 43.4199 89.67 43.1626V37.9409C89.67 37.3088 89.6842 36.7022 89.6979 36.1158C89.7365 34.4656 89.7714 32.9752 89.4758 31.527C89.4632 31.4653 89.4219 31.3635 89.256 31.0377C89.2488 31.0233 89.2409 31.0081 89.2326 30.9919C89.1058 30.7447 88.8668 30.2785 88.781 29.7629C88.7142 29.3607 88.6654 28.9153 88.6231 28.5283C88.6037 28.3512 88.5856 28.1863 88.5678 28.0433C88.5293 27.7349 88.4591 27.4148 88.3673 27.0354C88.3509 26.968 88.3336 26.8975 88.3156 26.8243C88.2388 26.5115 88.1506 26.1523 88.0823 25.7954C87.9944 25.3351 87.9674 24.8729 87.9471 24.5264C87.9439 24.4711 87.9408 24.4185 87.9378 24.3696C87.9125 23.9725 87.8822 23.7047 87.8105 23.461C87.4716 22.3103 86.7626 20.8709 86.0602 19.9158C85.9214 19.7271 85.736 19.5488 85.4168 19.2423L85.4139 19.2394C85.1356 18.9722 84.7349 18.5875 84.4151 18.1069C84.312 17.9519 84.2359 17.8036 84.1809 17.6877C84.1388 17.5987 84.0971 17.5027 84.0691 17.4379C84.063 17.4238 84.0576 17.4113 84.053 17.4006C84.0189 17.3225 83.9996 17.2841 83.9925 17.2698C83.4394 16.5972 82.7751 15.9856 82.0167 15.288L82.0094 15.2812C81.2739 14.6046 80.4436 13.8409 79.7405 12.9603C79.4135 12.5507 79.0882 12.1116 78.7842 11.701C78.6395 11.5057 78.4996 11.3167 78.3665 11.1405C77.9316 10.5645 77.5147 10.0471 77.0517 9.58313C75.701 8.22996 74.8978 7.42995 73.518 6.95327C72.4116 6.57102 71.331 6.26193 70.1842 5.93393C69.8441 5.83663 69.4981 5.73766 69.1439 5.63463C68.4435 5.43089 67.6721 5.15491 66.9709 4.90405C66.5446 4.75155 66.1443 4.60834 65.8018 4.49629C64.7802 4.1622 63.8548 3.94372 62.8912 3.94372C62.028 3.94372 61.2154 3.8027 60.5206 3.67368C60.4392 3.65853 60.3594 3.64361 60.2812 3.62897C59.6573 3.51215 59.1332 3.41403 58.5976 3.37702C58.0538 3.33943 57.5173 3.25963 57.0521 3.1904C56.9504 3.17529 56.8521 3.16068 56.7581 3.14712ZM23.6407 89.9774C23.4863 89.1175 23.4512 88.2803 23.4512 87.3111C23.4512 86.9051 23.4332 86.4461 23.3735 86.0222C23.3102 85.5728 23.2164 85.2885 23.1389 85.1525C22.8973 84.7289 22.796 84.3162 22.7443 84.1053C22.7393 84.0849 22.7348 84.0665 22.7306 84.05C22.6825 83.8597 22.668 83.8447 22.6648 83.8414C22.6646 83.8412 22.6645 83.8409 22.6643 83.8407C22.3561 83.4032 22.1707 82.931 22.046 82.5487C21.9587 82.281 21.8785 81.9792 21.8166 81.7463C21.795 81.6647 21.7755 81.5914 21.7588 81.5311C21.4272 80.3352 21.4276 79.2566 21.4279 78.2696V78.1783C21.4279 75.4068 22.1338 72.699 22.9359 70.2882C23.3476 69.0508 23.4512 67.6906 23.4512 66.1787C23.4512 65.8023 23.4684 65.4112 23.4842 65.054C23.4865 64.999 23.4889 64.9447 23.4912 64.8914C23.509 64.4752 23.5217 64.0974 23.512 63.7363C23.4923 63.0023 23.3803 62.4963 23.1578 62.1275C22.8827 61.6717 22.5446 61.2416 22.1348 60.7202C22.0974 60.6725 22.0593 60.6241 22.0205 60.5747C21.5846 60.0191 21.0765 59.3602 20.6753 58.6064C19.7919 56.9469 18.6687 54.5213 18.6687 52.1929C18.6687 51.0582 18.5806 50.1994 18.2154 49.5199C17.9472 49.0211 17.8453 48.478 17.8018 48.0317C17.7567 47.5699 17.7642 47.0944 17.7865 46.6666C17.8057 46.2964 17.8385 45.923 17.8669 45.5994C17.8713 45.5491 17.8756 45.5 17.8797 45.4522C17.9127 45.0731 17.933 44.7977 17.933 44.5959C17.933 43.2057 18.0279 41.8282 18.1186 40.5092L18.1206 40.4817C18.213 39.1371 18.3009 37.8518 18.3009 36.5689C18.3009 34.5418 18.7878 32.6278 19.282 30.8887C19.3647 30.5977 19.4473 30.3125 19.5283 30.0323C19.9485 28.5806 20.3311 27.2585 20.5112 25.9056C20.7914 23.8001 22.5066 22.2136 23.8054 21.3609C25.4053 20.3107 26.6926 19.2824 27.2378 17.9166C27.5703 17.0842 28.1447 16.3003 28.757 15.7287C28.7689 15.7076 28.7868 15.6735 28.8152 15.6162C28.8214 15.6038 28.8289 15.5884 28.8375 15.5708C28.8736 15.497 28.9291 15.3839 28.9835 15.2833C29.0568 15.148 29.1618 14.9701 29.3078 14.7906C29.6027 14.4275 29.9633 14.1947 30.104 14.1039C30.1194 14.094 30.1322 14.0858 30.1419 14.0792C30.1544 14.0709 30.1649 14.0637 30.1737 14.0575C30.8008 13.0135 31.7966 12.4453 32.5115 12.0702C32.7081 11.9671 32.8854 11.8767 33.0467 11.7945C33.5936 11.5158 33.956 11.3311 34.2578 11.0624C35.0644 10.344 35.825 9.56202 36.6298 8.73438C36.6846 8.6781 36.7395 8.6216 36.7947 8.5649C37.6459 7.6901 38.5494 6.7703 39.5361 5.93089C40.5677 5.05342 41.7671 4.43984 42.8709 3.93352C43.2582 3.75586 43.6241 3.59502 43.9745 3.44106C44.6849 3.12879 45.331 2.8448 45.9605 2.50603C46.777 2.06675 47.6683 1.80384 48.4613 1.60551C48.8313 1.51297 49.1546 1.43938 49.4573 1.37048C49.8778 1.27476 50.2587 1.18809 50.6699 1.07219C50.8169 1.0308 50.9548 0.96309 51.2182 0.833837C51.3028 0.792336 51.4004 0.74449 51.5152 0.689135C51.8875 0.50974 52.4992 0.225838 53.2061 0.188562C53.4433 0.176053 53.6811 0.14626 53.9838 0.108326C54.0119 0.104807 54.0406 0.101218 54.0697 0.0975664C54.3916 0.0573911 54.7853 0.0101157 55.199 0.00243975C55.9275 -0.0110779 56.6008 0.0733851 57.1867 0.157762C57.3092 0.175387 57.4264 0.192741 57.5397 0.209518C57.9968 0.27719 58.3903 0.33545 58.8051 0.364108C59.5281 0.41407 60.2335 0.546886 60.8377 0.660636C60.9169 0.675559 60.9944 0.690152 61.07 0.704188C61.7593 0.832187 62.3313 0.923648 62.8912 0.923648C64.315 0.923648 65.5881 1.24952 66.7371 1.62531C67.2721 1.80028 67.7299 1.96585 68.167 2.12398C68.7631 2.33957 69.321 2.54136 69.9843 2.73432C70.3089 2.82874 70.6357 2.9222 70.9645 3.01619C72.1255 3.34811 73.3097 3.68671 74.5007 4.09817C76.5518 4.80685 77.7974 6.05692 79.0342 7.29827C79.0838 7.34807 79.1335 7.39787 79.1831 7.44762C79.7926 8.05836 80.3075 8.7054 80.7704 9.31842C80.9407 9.54392 81.0987 9.75734 81.2515 9.96393C81.5343 10.3461 81.7998 10.7049 82.0942 11.0736C82.6315 11.7467 83.2913 12.3606 84.0554 13.0633L84.1204 13.123C84.8384 13.7834 85.6485 14.5285 86.3451 15.3814C86.5956 15.6881 86.74 16.0194 86.8105 16.181L86.8147 16.1906C86.8266 16.2176 86.8366 16.2407 86.8454 16.2611C86.8703 16.3184 86.8855 16.3534 86.9036 16.3917C86.9166 16.4191 86.9238 16.4321 86.9256 16.4353C87.0378 16.6029 87.2053 16.7766 87.5025 17.0619C87.523 17.0815 87.5443 17.1019 87.5664 17.123C87.824 17.3695 88.1872 17.7169 88.4869 18.1244C89.4018 19.3684 90.2656 21.126 90.7016 22.6063C90.8752 23.1958 90.9189 23.7517 90.9459 24.1778C90.9504 24.2481 90.9544 24.3143 90.9583 24.3771C90.9798 24.7315 90.9947 24.9756 91.0428 25.2274C91.0948 25.4994 91.1592 25.762 91.234 26.0669C91.2541 26.1491 91.275 26.2345 91.2967 26.3238C91.3929 26.7211 91.4979 27.1804 91.5588 27.6687C91.5894 27.9139 91.6124 28.127 91.6337 28.3249C91.6689 28.6513 91.6998 28.9369 91.7531 29.2588C91.7547 29.2646 91.7624 29.29 91.7838 29.3408C91.8183 29.4225 91.8647 29.5152 91.941 29.6651C91.9485 29.6798 91.9565 29.6953 91.9649 29.7117C92.0944 29.9647 92.3257 30.4165 92.429 30.9218C92.7996 32.7375 92.7514 34.7212 92.7092 36.4548C92.6965 36.9766 92.6843 37.4758 92.6843 37.9409V43.1626C92.6843 43.3471 92.6921 43.5471 92.7021 43.7847L92.7041 43.8328C92.7133 44.049 92.7237 44.2949 92.7266 44.5423C92.7327 45.0645 92.7095 45.7153 92.5219 46.36C92.3633 46.9048 92.1698 47.4266 91.9932 47.8975L91.953 48.0045C91.7867 48.4477 91.6375 48.845 91.5111 49.2471C91.4366 49.4842 91.3959 49.7534 91.3486 50.1531C91.3443 50.1893 91.3399 50.2271 91.3354 50.2662C91.2947 50.6164 91.2412 51.077 91.1269 51.5353C90.9918 52.077 90.8016 52.663 90.6333 53.1813C90.5475 53.4457 90.4674 53.6924 90.4032 53.9067C90.1955 54.6007 89.7336 55.1314 89.4701 55.4285C89.375 55.5355 89.2958 55.6233 89.2289 55.6975C89.0466 55.8994 88.9555 56.0003 88.8865 56.1134C88.844 56.1831 88.798 56.2801 88.7271 56.4564C88.715 56.4862 88.701 56.5219 88.6852 56.562C88.6261 56.7123 88.5431 56.9233 88.4548 57.1124C88.2292 57.5957 87.9208 58.0089 87.7133 58.2868C87.6946 58.312 87.6766 58.336 87.6596 58.359C87.4206 58.6811 87.3082 58.8529 87.244 59.0151C86.9616 59.7294 86.5752 60.3958 86.2183 60.9774C86.0981 61.1733 85.984 61.3556 85.8749 61.5297C85.6381 61.9078 85.4257 62.2469 85.229 62.6017C85.0084 62.9995 84.8716 63.5757 84.811 64.3384C84.7638 64.9308 84.768 65.5187 84.7723 66.1278C84.7736 66.3065 84.7748 66.4872 84.7748 66.6702C84.7748 67.5332 84.7513 68.3708 84.7284 69.1876C84.6737 71.1319 84.6225 72.9585 84.8997 74.7294C85.0673 75.8 85.0184 76.8554 84.9462 77.789C84.9258 78.0521 84.9042 78.3014 84.8833 78.5412C84.8259 79.2027 84.7748 79.7908 84.7748 80.3899V85.0893C84.7748 86.1113 84.3566 86.9201 83.9913 87.5014C83.8327 87.7535 83.7284 88.0367 83.6377 88.4168C83.5912 88.612 83.5515 88.8169 83.5056 89.0604L83.4959 89.1114C83.4541 89.333 83.4063 89.5865 83.3481 89.8449C83.0369 91.2261 82.6796 92.6149 82.334 93.9581C82.2867 94.1415 82.2397 94.3242 82.1931 94.506C81.8923 95.678 81.2427 96.5592 80.6658 97.2433C80.4422 97.5084 80.2443 97.7304 80.0649 97.9317C79.7252 98.3127 79.4521 98.6191 79.1976 99.0016C78.8707 99.493 78.4426 99.8212 78.1974 100.009L78.1879 100.017C77.8876 100.247 77.7917 100.323 77.7203 100.41C77.5065 100.672 77.2588 100.853 77.103 100.959C76.994 101.034 76.8507 101.123 76.7585 101.18C76.7292 101.198 76.7051 101.213 76.689 101.223C76.6843 101.226 76.6798 101.229 76.6755 101.232C76.4838 101.611 76.2016 101.857 76.0368 101.984C75.7889 102.177 75.5198 102.319 75.308 102.419C74.9717 102.578 74.5749 102.72 74.3965 102.783C74.3599 102.796 74.3324 102.806 74.3166 102.812C74.1222 102.886 73.9636 102.977 73.7117 103.122C73.5969 103.189 73.4626 103.266 73.2966 103.358C72.8544 103.603 72.2044 103.933 71.406 104C69.6615 104.145 67.9148 104.122 66.2531 104.099L66.1315 104.098C64.4076 104.075 62.773 104.057 61.1678 104.203C60.659 104.25 60.0605 104.443 59.2919 104.736C59.1665 104.784 59.0345 104.835 58.8973 104.889C58.2753 105.132 57.5483 105.415 56.8596 105.588C56.7052 105.626 56.5337 105.674 56.3482 105.725C55.5615 105.941 54.5232 106.227 53.4693 106.227C53.1562 106.227 52.8536 106.284 52.39 106.38L52.3456 106.389C51.9225 106.477 51.3488 106.595 50.7101 106.595H43.4547C41.6465 106.595 39.8208 105.784 38.5362 105.214C38.4445 105.173 38.3556 105.133 38.2696 105.095C36.4393 104.289 34.7501 103.325 33.1573 102.013C32.2272 101.247 31.4859 100.382 30.8344 99.589C30.7142 99.4425 30.5978 99.2996 30.484 99.1598C29.9582 98.5143 29.4882 97.9372 28.951 97.399L25.9161 94.3581C25.8305 94.2725 25.7298 94.1746 25.6204 94.0683C25.3292 93.7854 24.9762 93.4423 24.6819 93.1077C24.2457 92.6116 23.794 91.9855 23.5286 91.1878C23.3895 90.7699 23.443 90.3343 23.6407 89.9774Z" fill="white"/>
</g>
<defs>
<clipPath id="clip0_1_82">
<rect width="339" height="129" fill="white"/>
</clipPath>
</defs>
</svg>
