<svg width="61" height="69" viewBox="0 0 61 69" fill="none" xmlns="http://www.w3.org/2000/svg">
<path d="M47.8527 43.8875C47.6421 44.8641 47.4508 45.8929 47.1929 46.9044C46.0625 51.3577 43.2235 54.1588 38.9489 55.4972C38.1602 55.7435 37.9647 56.0749 37.9711 56.9294C37.984 58.8738 37.926 60.8421 37.6487 62.7647C36.8299 68.4279 32.1406 70.6317 27.2879 67.7064C24.7197 66.1587 23.4604 63.6737 22.7404 60.877C22.3815 59.4863 22.2203 58.0389 22.0527 56.6067C21.9775 55.9615 21.7884 55.5975 21.1522 55.3381C17.0668 53.6814 14.6641 50.6602 14.1032 46.1916C14.0688 45.9104 13.9807 45.6357 13.8431 45.0297C13.5594 45.7316 13.3918 46.1632 13.2091 46.5883C12.6676 47.8373 11.8767 48.7899 10.4755 49.0994C9.43317 49.3283 8.54129 49.0777 7.86002 48.2842C6.86499 47.1245 5.6271 47.0788 4.35054 47.4777C1.91345 48.2384 0.525134 47.4864 0.121102 44.9338C-0.285078 42.3769 0.419828 39.9159 0.91842 37.4331C1.80385 33.0255 4.21299 29.4854 6.93376 26.0849C8.10072 24.6266 9.27843 23.1443 10.1918 21.5226C10.9526 20.1711 11.5823 18.643 11.8337 17.1193C12.4032 13.6534 13.8216 10.8022 16.4457 8.448C19.2116 5.96954 22.0076 3.58918 25.3516 1.93906C32.2889 -1.48544 39.5228 -0.338853 45.0803 5.0998C47.8118 7.77225 49.817 10.8938 51.3407 14.4469C52.7849 17.8147 54.5987 21.0277 56.3696 24.2408C59.0839 29.1606 60.8612 34.3072 60.5496 40.0336C60.513 40.7093 60.3626 41.4003 60.152 42.0434C59.402 44.3387 57.4914 45.1801 55.4175 43.9987C53.5822 42.9502 51.8908 42.9916 50.0405 43.9376C49.486 44.221 48.6393 43.9224 47.8527 43.8875ZM51.1129 20.74C50.8915 19.0594 50.769 17.3569 50.4295 15.7003C49.5548 11.4278 46.9823 8.18642 43.8747 5.39625C38.1946 0.297654 31.7709 -0.384629 25.0636 3.20771C21.7454 4.98427 18.9687 7.45836 16.2609 10.0523C14.4621 11.7766 13.4069 13.8605 13.0351 16.2692C12.328 20.8446 12.6848 25.3024 15.0187 29.4091C16.1362 31.3732 16.4414 33.4135 15.8074 35.5628C14.8876 38.6821 14.5609 41.8123 14.8983 45.082C15.2916 48.8924 16.8261 51.9616 20.1271 53.7773C22.7576 55.2247 25.6933 56.0923 28.7085 56.2732C33.2667 56.5479 37.5198 55.2836 41.558 53.1931C43.0752 52.4084 44.1799 51.2095 44.975 49.7098C47.1112 45.6684 47.5153 41.311 46.5804 36.9491C45.94 33.965 46.43 31.4952 48.0783 29.0669C49.7654 26.5732 51.2698 23.9792 51.1129 20.74ZM11.578 21.2893C11.1782 21.9215 10.815 22.5798 10.3723 23.1792C8.62295 25.553 6.78547 27.8615 5.09628 30.2789C2.21863 34.3988 1.12903 39.1137 1.03017 44.0793C0.982893 46.4401 2.01016 47.07 4.21514 46.4706C5.73456 46.0586 7.24108 46.1153 8.44673 47.4384C9.40523 48.4891 10.7764 48.5371 11.5457 47.3033C12.4634 45.8319 13.5272 44.1687 13.6304 42.5295C13.7894 40.0052 14.3611 37.6249 14.9048 35.2053C15.2422 33.699 15.3453 32.2058 14.5631 30.7759C12.9512 27.8375 11.8251 24.7421 11.578 21.2893ZM52.0628 18.7106C52.0047 18.7258 51.9467 18.7389 51.8908 18.7542C51.8908 20.182 52.0456 21.6315 51.8565 23.0332C51.504 25.6402 50.1479 27.8288 48.6951 29.9563C47.5905 31.5737 46.7803 33.3742 47.2746 35.347C47.8011 37.4483 47.9773 39.5409 47.9386 41.6837C47.9214 42.6494 48.9272 43.4036 49.7568 42.9698C51.9209 41.8363 53.9561 41.9802 56.0622 43.1812C57.4183 43.9551 58.5853 43.4079 59.1441 41.93C59.3461 41.396 59.4621 40.8205 59.5438 40.2537C59.9091 37.6925 59.4106 35.214 58.8067 32.7486C57.8417 28.7966 55.9312 25.298 53.7928 21.9018C53.1502 20.8795 52.6344 19.7765 52.0628 18.7106ZM36.9911 56.2732C35.1085 56.6285 33.3763 56.9969 31.6312 57.2629C30.9822 57.361 30.8146 57.6443 30.7931 58.2394C30.7265 60.0269 31.0209 61.677 32.2072 63.1048C32.4071 63.3446 32.2351 63.9004 32.2373 64.3102C31.8698 64.21 31.3046 64.2274 31.1713 63.9898C30.5631 62.9108 29.9313 61.8056 29.5896 60.6241C29.2995 59.6193 29.3962 58.4988 29.321 57.4373C28.24 57.2498 27.1869 57.0994 26.1467 56.8792C25.1216 56.6612 24.1115 56.3713 23.0778 56.1097C22.9725 58.4661 23.7827 61.7053 24.9389 63.7805C26.0049 65.6922 27.548 66.9805 29.6197 67.6453C32.3018 68.5086 34.698 67.665 35.9338 65.1189C37.2791 62.3462 37.0685 59.325 36.9911 56.2732Z" fill="white"/>
<path d="M51.1128 20.74C51.2697 23.9792 49.7653 26.5732 48.0761 29.0669C46.4277 31.4974 45.9377 33.9649 46.5782 36.9491C47.513 41.3087 47.1112 45.6662 44.9728 49.7098C44.1798 51.2117 43.073 52.4084 41.5557 53.1931C37.5176 55.2836 33.2666 56.5479 28.7062 56.2732C25.691 56.0923 22.7575 55.2247 20.1249 53.7773C16.8238 51.9615 15.2894 48.8923 14.8961 45.082C14.5587 41.8123 14.8853 38.6821 15.8052 35.5627C16.4391 33.4134 16.134 31.3731 15.0164 29.4091C12.6825 25.3023 12.3258 20.8446 13.0328 16.2692C13.4046 13.8605 14.462 11.7744 16.2586 10.0523C18.9643 7.45832 21.7431 4.98423 25.0613 3.20768C31.7687 -0.386845 38.1924 0.295438 43.8725 5.39622C46.9801 8.18638 49.5525 11.43 50.4272 15.7002C50.7689 17.3569 50.8914 19.0593 51.1128 20.74ZM35.2588 34.3268C34.5582 34.5317 33.4106 35.1202 32.2501 35.1551C29.7356 35.227 28.1389 36.6897 26.5679 38.3747C24.8722 40.1927 24.9926 42.2308 25.8286 44.3147C26.0628 44.9011 26.6474 45.3915 27.1675 45.7992C27.7241 46.233 28.3925 46.525 29.02 46.8651C32.1491 48.5632 34.1327 48.0814 36.198 45.1954C37.6336 43.1899 38.3106 40.8859 38.9295 38.5447C39.5979 36.0227 38.3428 34.3486 35.2588 34.3268ZM23.168 27.1683C23.5247 27.1486 23.8815 27.1421 24.2361 27.105C26.9848 26.8129 28.6525 25.2914 28.7256 22.5165C28.7707 20.862 28.3258 19.1661 27.896 17.5443C27.737 16.9427 27.0794 16.2626 26.4905 16.0294C23.5484 14.8545 19.8197 16.1231 19.2846 19.855C19.0653 21.383 19.276 23.0331 19.5833 24.5655C19.9873 26.5601 21.1457 27.2751 23.168 27.1683ZM35.7596 20.352C35.8026 22.2789 36.1163 24.1165 38.1343 24.9252C40.0599 25.6969 41.9254 25.5007 43.5007 23.9988C45.4671 22.1263 46.1161 18.6452 45.005 16.1623C44.5258 15.0899 43.6704 14.3727 42.568 14.6278C40.9647 15.0005 39.3572 15.5346 37.8894 16.2801C36.3377 17.067 35.6629 18.558 35.7596 20.352Z" fill="#520096" fill-opacity="0.82"/>
<path d="M11.5782 21.2892C11.8253 24.7421 12.9514 27.8374 14.5633 30.7758C15.3477 32.2058 15.2445 33.6968 14.905 35.2052C14.3613 37.6248 13.7896 40.0052 13.6306 42.5294C13.5274 44.1686 12.4636 45.8318 11.5459 47.3032C10.7744 48.5392 9.40542 48.489 8.44692 47.4384C7.24128 46.1152 5.73476 46.0585 4.21534 46.4705C2.00821 47.07 0.983091 46.44 1.03037 44.0793C1.13138 39.1136 2.22097 34.3987 5.09647 30.2788C6.78352 27.8614 8.621 25.5508 10.3725 23.1791C10.8131 22.5797 11.1784 21.9214 11.5782 21.2892Z" fill="#520096"/>
<path d="M52.0629 18.7106C52.6367 19.7766 53.1503 20.8817 53.7929 21.9019C55.9313 25.298 57.8418 28.7967 58.8068 32.7487C59.4085 35.2141 59.9093 37.6925 59.5439 40.2538C59.4623 40.8205 59.3462 41.3982 59.1442 41.9301C58.5854 43.408 57.4185 43.9551 56.0624 43.1813C53.9563 41.9802 51.9232 41.8363 49.7569 42.9698C48.9274 43.4036 47.9216 42.6494 47.9388 41.6838C47.9775 39.541 47.8012 37.4484 47.2747 35.347C46.7804 33.3721 47.5906 31.5716 48.6953 29.9563C50.148 27.8288 51.5041 25.6381 51.8566 23.0332C52.0457 21.6316 51.891 20.182 51.891 18.7542C51.9468 18.739 52.0049 18.7237 52.0629 18.7106Z" fill="#520096"/>
<path d="M36.9913 56.2733C37.0687 59.3272 37.2793 62.3463 35.9318 65.1212C34.696 67.6672 32.2998 68.5108 29.6177 67.6476C27.546 66.9806 26.0029 65.6945 24.937 63.7828C23.7808 61.7076 22.9705 58.4684 23.0758 56.112C24.1096 56.3736 25.1196 56.6635 26.1448 56.8815C27.1849 57.1016 28.238 57.252 29.319 57.4395C29.3942 58.5011 29.2975 59.6215 29.5876 60.6264C29.9293 61.8079 30.5612 62.913 31.1694 63.9921C31.3026 64.2275 31.8678 64.2122 32.2353 64.3125C32.2353 63.9027 32.4051 63.3468 32.2052 63.107C31.0189 61.6771 30.7267 60.0291 30.7911 58.2417C30.8126 57.6444 30.9802 57.3632 31.6293 57.2651C33.3786 56.997 35.1087 56.6286 36.9913 56.2733Z" fill="#520096"/>
<path d="M35.2588 34.3268C38.3406 34.3486 39.5957 36.0227 38.9295 38.5448C38.3105 40.8859 37.6336 43.1922 36.198 45.1954C34.1327 48.0815 32.1491 48.5632 29.02 46.8652C28.3924 46.5251 27.7241 46.2352 27.1674 45.7992C26.6474 45.3938 26.0628 44.9011 25.8285 44.3148C24.9925 42.2309 24.8722 40.1927 26.5678 38.3748C28.1388 36.6919 29.7356 35.2271 32.2501 35.1552C33.4127 35.1225 34.5582 34.5317 35.2588 34.3268ZM27.969 43.3295C27.9325 45.6902 31.4012 47.4036 33.546 46.2417C35.4436 45.2129 37.842 40.4216 37.5455 38.2527C37.5111 38.002 37.5498 37.6947 37.4165 37.5181C37.2403 37.2827 36.9115 36.9753 36.6772 37.0015C34.5754 37.2216 32.5402 37.7186 30.7328 38.8848C29.0823 39.9508 28.04 41.4265 27.969 43.3295ZM26.83 43.8701C26.9998 41.0995 28.2506 39.0135 30.6533 37.7884C31.9406 37.1323 33.3611 36.7312 34.7495 36.3039C35.5403 36.0598 36.3828 35.9944 37.2016 35.8484C37.1887 35.698 37.1758 35.5475 37.1651 35.3971C36.2818 35.4451 35.3878 35.4233 34.5195 35.565C33.7544 35.6892 33.0194 36.1841 32.2716 36.1884C29.583 36.1971 28.1023 38.0173 26.7204 39.905C25.8114 41.1519 26.2304 42.5426 26.83 43.8701Z" fill="white"/>
<path d="M23.1679 27.1683C21.1456 27.2773 19.985 26.5623 19.5853 24.5656C19.2758 23.0332 19.0674 21.3831 19.2866 19.855C19.8217 16.1232 23.5504 14.8545 26.4925 16.0294C27.0814 16.2649 27.7369 16.9428 27.898 17.5444C28.3279 19.1662 28.7706 20.8621 28.7276 22.5166C28.6545 25.2915 26.9868 26.8108 24.2381 27.1051C23.8814 27.1422 23.5246 27.1465 23.1679 27.1683ZM19.9485 21.2305C20.1978 22.425 20.3869 23.6348 20.7114 24.8076C20.9822 25.7907 21.7495 26.279 22.7445 26.2201C23.5912 26.17 24.4552 26.0697 25.2697 25.8408C26.5677 25.4746 27.4016 24.5896 27.6681 23.2076C28.0248 21.3678 27.7283 19.5891 26.9782 17.9324C26.7375 17.4027 26.0434 16.8796 25.4674 16.7444C22.4587 16.0382 20.0689 18.0676 19.9485 21.2305Z" fill="white"/>
<path d="M35.7598 20.3519C35.6631 18.5579 36.3379 17.0669 37.8896 16.28C39.3574 15.5367 40.9649 15.0005 42.5682 14.6277C43.6685 14.3727 44.5238 15.0898 45.0052 16.1623C46.1163 18.6429 45.4673 22.1241 43.5009 23.9988C41.9234 25.5007 40.0602 25.6968 38.1346 24.9252C36.1166 24.1143 35.8006 22.2789 35.7598 20.3519ZM36.7333 20.0424C36.8086 21.8778 36.9375 23.3208 38.4827 23.9704C39.914 24.572 41.3324 24.5481 42.5896 23.4582C44.3841 21.9018 45.0633 18.9241 44.1563 16.7182C43.8275 15.9182 43.2516 15.395 42.4285 15.6195C41.1412 15.9705 39.856 16.4064 38.6525 16.9841C37.2814 17.6446 36.6001 18.8348 36.7333 20.0424Z" fill="white"/>
<path d="M27.969 43.3295C28.04 41.4265 29.0801 39.9507 30.7328 38.8848C32.5402 37.7186 34.5775 37.2194 36.6772 37.0015C36.9093 36.9775 37.2381 37.2826 37.4165 37.5181C37.5497 37.6946 37.5111 38.002 37.5454 38.2527C37.842 40.4216 35.4415 45.2128 33.546 46.2417C31.4012 47.4035 27.9325 45.6902 27.969 43.3295Z" fill="#520096"/>
<path d="M26.8303 43.8701C26.2307 42.5426 25.8095 41.1519 26.7229 39.905C28.1048 38.0151 29.5855 36.1971 32.274 36.1884C33.0241 36.1863 33.759 35.6893 34.522 35.565C35.3902 35.4233 36.2842 35.4473 37.1675 35.3972C37.1804 35.5476 37.1933 35.698 37.2041 35.8484C36.3853 35.9944 35.5407 36.062 34.7519 36.304C33.3636 36.7312 31.9431 37.1323 30.6557 37.7884C28.2509 39.0135 27.0023 41.0996 26.8303 43.8701Z" fill="#520096"/>
<path d="M19.9485 21.2305C20.0688 18.0697 22.4586 16.0381 25.4695 16.7422C26.0455 16.8774 26.7397 17.4005 26.9804 17.9302C27.7304 19.589 28.027 21.3678 27.6702 23.2054C27.4016 24.5874 26.5699 25.4746 25.2718 25.8386C24.4573 26.0675 23.5955 26.1677 22.7466 26.2179C21.7516 26.2767 20.9844 25.7885 20.7136 24.8054C20.3869 23.6326 20.1956 22.4228 19.9485 21.2305ZM22.8412 21.298C22.8863 21.7122 22.8412 22.183 23.0067 22.5536C23.1743 22.9285 23.5998 23.4975 23.8319 23.4604C24.2316 23.3972 24.7302 23.0005 24.8936 22.6146C25.087 22.1591 25.0784 21.5422 24.9602 21.043C24.799 20.3585 24.756 19.3166 23.7911 19.3994C22.7638 19.4888 22.9207 20.5177 22.8412 21.298Z" fill="#520096"/>
<path d="M36.7332 20.0425C36.5978 18.8349 37.2791 17.6447 38.6545 16.9864C39.858 16.4087 41.141 15.9728 42.4305 15.6218C43.2536 15.3973 43.8296 15.9204 44.1584 16.7204C45.0653 18.9264 44.3862 21.904 42.5917 23.4604C41.3366 24.5503 39.9182 24.5743 38.4847 23.9727C36.9374 23.3209 36.8084 21.8779 36.7332 20.0425ZM41.7686 20.2169C41.7707 19.3973 41.04 18.364 40.4447 18.3422C39.8817 18.3226 38.9747 19.7373 38.9683 20.6419C38.9618 21.4964 39.555 22.1656 40.3072 22.1525C41.126 22.1373 41.7664 21.2893 41.7686 20.2169Z" fill="#520096"/>
<path d="M22.8416 21.298C22.9211 20.5177 22.7642 19.4888 23.7936 19.3994C24.7586 19.3166 24.8015 20.3585 24.9627 21.043C25.0809 21.5422 25.0895 22.1591 24.8961 22.6147C24.7328 23.0005 24.2342 23.3972 23.8344 23.4604C23.6023 23.4975 23.1768 22.9286 23.0092 22.5536C22.8416 22.1831 22.8867 21.7122 22.8416 21.298Z" fill="white"/>
<path d="M41.7686 20.2168C41.7664 21.2893 41.126 22.1394 40.3072 22.1547C39.555 22.1678 38.9619 21.4986 38.9683 20.6441C38.9748 19.7395 39.8817 18.3248 40.4447 18.3444C41.04 18.3618 41.7707 19.3951 41.7686 20.2168Z" fill="white"/>
</svg>
