<svg width="95" height="58" viewBox="0 0 95 58" fill="none" xmlns="http://www.w3.org/2000/svg">
<path d="M31.1111 5.73099C31.1111 6.97307 30.4187 8.02085 29.0339 8.87432C27.6491 9.72417 25.7802 10.3688 23.427 10.8083C21.0739 11.2441 18.4501 11.462 15.5556 11.462C12.6402 11.462 10.006 11.2423 7.65283 10.8028C5.31013 10.3597 3.44638 9.71327 2.06158 8.86343C0.687193 8.00995 0 6.96581 0 5.73099C0 4.48892 0.687193 3.44295 2.06158 2.59311C3.44638 1.73964 5.31013 1.09499 7.65283 0.659173C10.006 0.219724 12.6402 0 15.5556 0C18.4501 0 21.0739 0.219724 23.427 0.659173C25.7802 1.09499 27.6491 1.73964 29.0339 2.59311C30.4187 3.44295 31.1111 4.48892 31.1111 5.73099ZM22.1776 5.73099C22.1776 5.06274 21.9225 4.49981 21.4123 4.0422C20.9125 3.58096 20.1681 3.23231 19.1789 2.99624C18.2002 2.75654 16.9924 2.63669 15.5556 2.63669C14.1187 2.63669 12.9057 2.75654 11.9166 2.99624C10.9378 3.23231 10.1934 3.58096 9.68318 4.0422C9.1834 4.49981 8.93351 5.06274 8.93351 5.73099C8.93351 6.39925 9.1834 6.96399 9.68318 7.42523C10.1934 7.88284 10.9378 8.2315 11.9166 8.47119C12.9057 8.70726 14.1187 8.8253 15.5556 8.8253C16.9924 8.8253 18.2002 8.70726 19.1789 8.47119C20.1681 8.2315 20.9125 7.88284 21.4123 7.42523C21.9225 6.96399 22.1776 6.39925 22.1776 5.73099Z" fill="black"/>
<path d="M43.6735 5.56979V10.4795H32.7778V1.75109H43.1208V3.4104H43.4366C44.0945 2.8573 45.2525 2.42353 46.9106 2.10909C48.5818 1.79465 50.5293 1.63744 52.7532 1.63744C54.8981 1.63744 56.7601 1.7795 58.3392 2.06363C59.9314 2.34397 61.1618 2.73039 62.0303 3.22288C62.912 3.71537 63.3462 4.27794 63.333 4.91061V10.4795H52.4374V5.56979C52.4505 5.13791 52.0689 4.79885 51.2925 4.5526C50.5293 4.30636 49.4634 4.18323 48.0949 4.18323C47.2001 4.18323 46.4171 4.24006 45.746 4.35371C45.0881 4.46358 44.5814 4.62269 44.2261 4.83105C43.8708 5.03562 43.6866 5.28187 43.6735 5.56979Z" fill="black"/>
<path d="M72.4805 37.3359V42.2456H60V33.5172H71.8474V35.1765H72.2092C72.9628 34.6234 74.2893 34.1896 76.1885 33.8752C78.1028 33.5607 80.3336 33.4035 82.8809 33.4035C85.3378 33.4035 87.4707 33.5456 89.2794 33.8297C91.1033 34.11 92.5126 34.4965 93.5074 34.9889C94.5173 35.4814 95.0147 36.044 94.9997 36.6767V42.2456H82.5192V37.3359C82.5342 36.904 82.0971 36.5649 81.2078 36.3187C80.3336 36.0724 79.1127 35.9493 77.5451 35.9493C76.5201 35.9493 75.6232 36.0061 74.8545 36.1198C74.1009 36.2296 73.5205 36.3888 73.1136 36.5971C72.7066 36.8017 72.4956 37.0479 72.4805 37.3359Z" fill="black"/>
<path d="M73.6365 49.6391C72.8988 49.2686 71.8186 48.9218 70.3959 48.5986C68.9731 48.2717 67.2079 47.9866 65.1001 47.7433C63.0187 47.4963 60.6079 47.3038 57.8678 47.1658C55.1541 47.0278 52.1242 46.9588 48.7781 46.9588C43.5087 46.9588 38.7926 47.1477 34.6297 47.5254C30.4669 47.9031 27.1735 48.4478 24.7496 49.1597C22.352 49.8715 21.1532 50.7286 21.1532 51.731C21.1532 52.7297 22.3652 53.585 24.7891 54.2969C27.213 55.0087 30.5328 55.5553 34.7483 55.9366C38.9902 56.3143 43.838 56.5032 49.2919 56.5032C54.2715 56.5032 58.6714 56.3507 62.4917 56.0456C66.3121 55.7405 69.2893 55.3047 71.4234 54.7381C73.5838 54.1716 74.6377 53.4979 74.585 52.717L76.9563 52.8205H51.0308V51.9053H81.7778V52.8205C81.7778 53.7721 80.3814 54.5947 77.5886 55.2884C74.7958 55.982 70.9623 56.5177 66.0881 56.8954C61.2139 57.2731 55.6152 57.462 49.2919 57.462C42.2309 57.462 36.0525 57.2277 30.7567 56.7592C25.461 56.2871 21.3377 55.6225 18.3868 54.7654C15.4623 53.9046 14 52.8932 14 51.731C14 50.8557 14.8431 50.0658 16.5293 49.3612C18.2155 48.6567 20.5999 48.0538 23.6825 47.5526C26.7915 47.0514 30.4669 46.6683 34.7088 46.4031C38.9507 46.1344 43.6404 46 48.7781 46C53.2044 46 57.2487 46.0962 60.9109 46.2887C64.5995 46.4812 67.8402 46.7463 70.633 47.0841C73.4521 47.4182 75.7575 47.805 77.5491 48.2445C79.367 48.6803 80.5922 49.1451 81.2245 49.6391H73.6365Z" fill="black"/>
<path d="M66.1111 11.462V0H95V2.50731H76.9934V4.47734H93.5125V6.98465H76.9934V8.95468H94.9217V11.462H66.1111Z" fill="black"/>
<path d="M12.3544 15.0575C13.1229 14.9521 13.864 14.9916 14.5776 15.176C15.5839 15.3867 16.5354 15.9134 17.432 16.7563C17.5418 16.8879 17.6241 16.9406 17.679 16.9143C17.7705 16.7826 18.0084 16.4797 18.3926 16.0056C18.8683 15.4262 19.1154 15.1233 19.1337 15.097C19.1886 15.0443 19.3166 15.018 19.5179 15.018C19.7375 15.018 19.8747 15.0443 19.9296 15.097C20.0211 15.176 20.076 15.3603 20.0943 15.6501C20.1126 16.0188 20.1217 17.3884 20.1217 19.7588C20.1217 22.7086 20.0577 24.2494 19.9296 24.3811C19.8564 24.4337 19.5911 24.4601 19.1337 24.4601C18.6762 24.4601 18.4109 24.4337 18.3377 24.3811C18.2279 24.302 18.1547 24.0255 18.1181 23.5514C18.0084 22.7086 17.8345 21.9316 17.5967 21.2205C17.3771 20.5621 17.0752 19.9826 16.6909 19.4822C15.9042 18.376 14.8063 17.7834 13.3974 17.7044C11.897 17.6254 10.9455 18.3365 10.543 19.8378C10.4515 20.2065 10.4058 20.6279 10.4058 21.102C10.4058 21.6287 10.4698 22.0897 10.5979 22.4847C10.8724 23.3012 11.3664 23.907 12.08 24.302C12.2081 24.4074 12.9125 24.6444 14.1933 25.0132C15.5108 25.4082 16.2427 25.6453 16.389 25.7243C17.1941 26.014 17.9169 26.5012 18.5573 27.186C19.8747 28.5819 20.6706 30.4914 20.9451 32.9145C21.0183 33.652 21.0183 34.5738 20.9451 35.68C20.8353 36.6808 20.6249 37.6421 20.3138 38.564C19.9479 39.6438 19.463 40.513 18.8592 41.1714C18.0175 42.0932 17.002 42.6727 15.8127 42.9097C15.3552 43.0151 14.6508 43.0282 13.6993 42.9492C13.6078 42.9229 13.5346 42.9097 13.4797 42.9097C11.9062 42.6727 10.6436 42.1064 9.69217 41.2109C9.58238 41.1056 9.50004 41.0661 9.44515 41.0924C9.35366 41.2241 9.1158 41.527 8.73155 42.001C8.25582 42.5805 8.0088 42.8834 7.9905 42.9097C7.93561 42.9624 7.80753 42.9887 7.60626 42.9887C7.38669 42.9887 7.24946 42.9624 7.19456 42.9097C7.10308 42.8307 7.04818 42.6463 7.02989 42.3566C7.01159 41.9879 7.00244 40.6315 7.00244 38.2874C7.00244 35.4166 7.02074 33.9417 7.05733 33.8627C7.07563 33.81 7.11222 33.7441 7.16712 33.6651C7.2586 33.5861 7.52392 33.5466 7.96306 33.5466C8.43879 33.5466 8.71325 33.5729 8.78644 33.6256C8.91452 33.731 8.97857 34.0075 8.97857 34.4553C9.03346 35.8775 9.38111 37.0495 10.0215 37.9714C10.4973 38.6561 11.156 39.1961 11.9976 39.5911C13.0772 40.0916 14.1567 40.2627 15.2363 40.1047C15.3827 40.0784 15.5108 40.052 15.6205 40.0257C16.1329 39.8677 16.5537 39.5516 16.8831 39.0775C17.249 38.5508 17.4869 37.8397 17.5967 36.9442C17.7431 35.601 17.4869 34.4553 16.8282 33.5071C16.5537 33.0594 16.1969 32.7433 15.7578 32.5589C15.6846 32.5063 14.9527 32.2561 13.5621 31.8083C12.2447 31.4396 11.4945 31.2025 11.3115 31.0972C9.95748 30.5441 8.89623 29.5038 8.12773 27.9762C7.34094 26.4749 6.96584 24.7893 7.00244 22.9193C7.05733 21.0493 7.44158 19.4427 8.15518 18.0995C8.83219 16.7826 9.82025 15.8739 11.1194 15.3735C11.5585 15.2155 11.9702 15.1101 12.3544 15.0575Z" fill="black"/>
<path d="M54.282 17.3924V19.5669H28.3333V17.3924H54.282ZM33.359 15.3918H47.5128V23.057C47.5128 23.173 47.6068 23.2708 47.7949 23.3506C47.9829 23.4267 48.2735 23.4847 48.6667 23.5245C49.0598 23.5608 49.5641 23.5789 50.1795 23.5789C50.6068 23.5789 51.1026 23.568 51.6667 23.5463C52.2479 23.5245 52.6752 23.5064 52.9487 23.4919L55 25.6012C54.3675 25.6411 53.4615 25.69 52.2821 25.748C51.1197 25.806 49.735 25.844 48.1282 25.8621C44.8803 25.8984 42.1538 25.8277 39.9487 25.6501C37.7436 25.4689 36.0855 25.1844 34.9744 24.7966C33.8632 24.4088 33.3248 23.9232 33.359 23.3397V15.3918Z" fill="black"/>
<path d="M66.1111 27.5088V19.0489H88.8889V27.5088H66.1111ZM77.5 18.1677C74.4189 18.1677 71.778 18.0318 69.5773 17.7601C67.3765 17.4884 66.2762 17.1616 66.2762 16.7798C66.2762 16.3979 67.3765 16.0711 69.5773 15.7994C71.778 15.5277 74.4189 15.3918 77.5 15.3918C80.6086 15.3918 83.2495 15.5277 85.4227 15.7994C87.6234 16.0711 88.7238 16.3979 88.7238 16.7798C88.7238 17.1616 87.6234 17.4884 85.4227 17.7601C83.2495 18.0318 80.6086 18.1677 77.5 18.1677Z" fill="black"/>
<path d="M33 42V33.6218H47V42H33ZM40 32.7491C38.1063 32.7491 36.4831 32.6145 35.1304 32.3455C33.7778 32.0764 33.1014 31.7527 33.1014 31.3745C33.1014 30.9964 33.7778 30.6727 35.1304 30.4036C36.4831 30.1345 38.1063 30 40 30C41.9106 30 43.5338 30.1345 44.8696 30.4036C46.2222 30.6727 46.8986 30.9964 46.8986 31.3745C46.8986 31.7527 46.2222 32.0764 44.8696 32.3455C43.5338 32.6145 41.9106 32.7491 40 32.7491Z" fill="black"/>
</svg>
