<svg width="322" height="322" viewBox="0 0 322 322" fill="none" xmlns="http://www.w3.org/2000/svg">
<path fill-rule="evenodd" clip-rule="evenodd" d="M102.039 177.344C103.023 177.493 103.286 177.493 104.235 177.79C105.676 178.225 107.015 178.945 108.17 179.895C108.467 180.124 108.73 180.398 109.005 180.65L141.361 212.995C141.613 213.269 141.876 213.532 142.116 213.83C144.713 216.998 145.433 221.619 143.832 225.462C143.409 226.503 142.825 227.475 142.116 228.344C141.876 228.63 141.613 228.893 141.361 229.168L63.7122 306.805C63.472 307.034 63.2318 307.274 62.9688 307.492C62.191 308.143 61.3332 308.692 60.4068 309.116C59.5833 309.493 59.3545 309.527 58.4967 309.79L14.8284 321.114C14.4624 321.194 14.0964 321.285 13.7189 321.342C9.62429 321.983 5.25517 320.221 2.76179 316.847C0.966105 314.423 0.188355 311.266 0.657292 308.281C0.71448 307.915 0.805979 307.549 0.886042 307.171L12.2092 263.503C12.3121 263.183 12.3922 262.851 12.5065 262.531C12.8497 261.581 13.3186 260.666 13.8905 259.843C14.4052 259.099 14.5882 258.951 15.1944 258.287L92.8321 180.65C93.5755 179.975 93.7357 179.78 94.5706 179.22C95.8059 178.385 97.2241 177.802 98.6881 177.516C99.6717 177.321 99.9233 177.344 100.918 177.298C101.296 177.31 101.662 177.333 102.039 177.344Z" fill="#F2F2F2"/>
<path fill-rule="evenodd" clip-rule="evenodd" d="M125.177 196.822L141.361 212.995C141.613 213.269 141.876 213.532 142.116 213.83C144.712 216.998 145.433 221.619 143.832 225.462C143.409 226.503 142.825 227.475 142.116 228.344C141.876 228.63 141.613 228.893 141.361 229.168L63.7121 306.805C63.4719 307.034 63.2317 307.274 62.9687 307.492C62.1909 308.143 61.3331 308.692 60.4067 309.116C59.5832 309.493 59.3544 309.527 58.4966 309.79L14.8282 321.114C14.4622 321.194 14.0962 321.285 13.7188 321.342C10.1732 321.903 6.43309 320.656 3.87109 318.128L125.177 196.822Z" fill="#D9D9D9"/>
<path fill-rule="evenodd" clip-rule="evenodd" d="M52.5725 140.035C62.2143 130.439 74.8413 123.474 88.3147 120.351C102.268 117.126 117.103 117.915 130.725 122.41C131.754 122.753 132.784 123.108 133.813 123.496L208.946 48.3635C205.538 41.4095 204.485 33.1173 206.304 25.4771C208.386 16.7731 214.207 8.99563 222.122 4.61507C226.8 2.0302 232.141 0.634822 237.448 0.531885C237.688 0.520447 237.94 0.520447 238.18 0.520447C246.907 0.566197 255.497 4.06607 261.844 10.0021C262.096 10.2423 262.348 10.4825 262.599 10.7341C278.818 26.9182 295.002 43.1366 311.197 59.3321C318.071 66.2289 321.949 76.0194 321.434 85.7069C321.022 93.3472 317.911 100.804 312.627 106.409C312.41 106.638 312.192 106.855 311.975 107.072C311.975 107.072 311.506 107.541 311.14 107.884C304.266 114.289 294.556 117.412 285.154 116.405C281.162 115.971 277.251 114.827 273.637 113.065L198.504 188.198C202.575 199.064 204.371 211.188 203.33 223.06C201.889 239.587 194.958 255.577 183.543 267.792C183.189 268.181 182.823 268.57 182.445 268.947L182.079 269.325L182.32 269.05L181.553 269.839L180.718 270.56C180.409 270.766 180.124 270.994 179.815 271.189C176.406 273.339 171.854 273.522 168.263 271.578C167.611 271.223 167.005 270.811 166.433 270.342C166.147 270.114 165.895 269.851 165.621 269.611L52.3895 156.379C52.1493 156.116 51.8977 155.865 51.6689 155.579C49.37 152.799 48.5008 148.888 49.4158 145.388C49.8847 143.638 50.7539 142.014 51.9663 140.664C52.2065 140.39 52.4696 140.149 52.7212 139.886L52.5725 140.035L52.481 140.127L52.5611 140.035H52.5725Z" fill="#F44336"/>
<path fill-rule="evenodd" clip-rule="evenodd" d="M286.938 35.0617C295.024 43.148 303.111 51.2458 311.197 59.3321C318.071 66.2289 321.948 76.0194 321.434 85.707C321.022 93.3472 317.911 100.804 312.627 106.409C312.409 106.638 312.192 106.855 311.975 107.072C311.975 107.072 311.506 107.541 311.14 107.884C304.266 114.289 294.555 117.412 285.154 116.405C281.162 115.971 277.251 114.827 273.636 113.065L198.503 188.198C202.575 199.064 204.371 211.188 203.33 223.06C201.889 239.587 194.958 255.577 183.543 267.792C183.189 268.181 182.823 268.57 182.445 268.947L182.079 269.325L182.319 269.05L181.553 269.839L180.718 270.56C180.409 270.766 180.123 270.994 179.814 271.189C176.406 273.339 171.854 273.522 168.263 271.578C167.611 271.223 167.004 270.811 166.433 270.343C166.147 270.114 165.895 269.851 165.62 269.611L109.005 212.995L286.938 35.0617Z" fill="#C62828"/>
</svg>
