<svg width="55" height="55" viewBox="0 0 55 55" fill="none" xmlns="http://www.w3.org/2000/svg">
<path d="M18.9062 36.0938L10.3125 44.6875" stroke="#520096" stroke-width="2" stroke-linecap="round" stroke-linejoin="round"/>
<path d="M33.1503 6.38085L19.7655 19.7656C19.7655 19.7656 13.8143 16.7793 7.43345 21.9355C7.24569 22.0875 7.09207 22.2773 6.98259 22.4926C6.87311 22.7079 6.81024 22.9438 6.79808 23.1851C6.78592 23.4263 6.82473 23.6674 6.912 23.8926C6.99927 24.1178 7.13302 24.3221 7.30455 24.4922L30.4647 47.6523C30.6381 47.8287 30.8475 47.9656 31.0786 48.0537C31.3097 48.1418 31.5571 48.1789 31.8039 48.1626C32.0507 48.1463 32.2911 48.0769 32.5086 47.9592C32.7261 47.8414 32.9157 47.6782 33.0643 47.4805C34.869 45.0957 37.7049 40.1543 35.2342 35.2344L48.619 21.8496C48.7814 21.6897 48.9104 21.499 48.9984 21.2888C49.0864 21.0786 49.1318 20.8529 49.1318 20.625C49.1318 20.3971 49.0864 20.1714 48.9984 19.9612C48.9104 19.7509 48.7814 19.5603 48.619 19.4004L35.5995 6.38085C35.4395 6.21846 35.2489 6.08949 35.0387 6.00146C34.8284 5.91344 34.6028 5.8681 34.3749 5.8681C34.1469 5.8681 33.9213 5.91344 33.711 6.00146C33.5008 6.08949 33.3102 6.21846 33.1503 6.38085Z" stroke="#520096" stroke-width="2" stroke-linecap="round" stroke-linejoin="round"/>
</svg>
